<?xml version="1.0" encoding="UTF-8" standalone="no"?>
<!DOCTYPE svg PUBLIC "-//W3C//DTD SVG 1.1//EN" "http://www.w3.org/Graphics/SVG/1.1/DTD/svg11.dtd">
<svg xmlns="http://www.w3.org/2000/svg" version="1.1" viewBox="0.00 0.00 542.00 569.00">
<g stroke-width="2.00" fill="none" stroke-linecap="butt">
<path stroke="#ebebfe" vector-effect="non-scaling-stroke" d="
  M 151.13 0.00
  Q 148.70 0.53 147.11 0.36
  Q 145.53 0.18 144.64 0.95
  Q 144.08 1.43 143.42 1.77
  Q 142.69 2.16 141.90 1.95
  A 1.39 1.34 35.9 0 0 140.84 2.10
  Q 139.82 2.74 138.64 2.38
  Q 136.79 1.82 134.71 2.49
  Q 134.28 2.62 134.08 3.03
  L 132.71 5.91
  Q 132.66 6.03 132.53 6.09
  Q 132.33 6.20 132.15 6.13
  Q 131.87 6.02 131.62 6.18
  L 128.77 7.95
  Q 128.39 8.19 128.00 7.96
  Q 127.80 7.85 127.57 7.84
  A 0.76 0.76 0.0 0 0 126.79 8.51
  Q 126.61 9.92 124.98 9.58
  A 0.29 0.28 -84.2 0 0 124.64 9.86
  Q 124.63 10.03 124.65 10.20
  Q 124.73 10.92 124.02 10.80
  Q 122.50 10.54 121.42 11.51
  Q 120.91 11.97 120.22 11.98
  Q 118.96 11.98 119.09 13.20
  A 0.80 0.79 80.1 0 1 118.50 14.04
  Q 117.72 14.24 116.83 14.09
  A 0.36 0.35 -20.1 0 0 116.54 14.71
  Q 117.20 15.27 118.15 15.11
  Q 118.22 15.10 118.30 15.12
  Q 118.48 15.17 118.56 15.31
  Q 118.81 15.71 118.34 15.66
  Q 117.94 15.62 117.86 16.01
  Q 117.44 18.09 115.12 17.56
  A 0.36 0.36 0.0 0 0 114.68 17.87
  Q 114.62 18.31 114.86 18.31
  Q 115.31 18.30 114.97 18.60
  Q 114.34 19.16 113.69 18.46
  Q 113.55 18.31 113.44 18.47
  Q 113.33 18.62 113.18 18.65
  A 0.25 0.25 0.0 0 0 112.99 18.98
  Q 113.04 19.14 113.19 19.17
  Q 114.10 19.38 113.16 19.39
  Q 112.28 19.41 111.44 19.63
  Q 110.97 19.75 110.78 20.20
  Q 110.62 20.55 110.59 20.97
  Q 110.56 21.36 110.41 20.99
  L 110.14 20.32
  Q 109.91 19.74 109.36 20.03
  Q 108.79 20.32 108.37 20.88
  Q 108.07 21.29 108.53 21.51
  Q 108.83 21.65 108.48 22.00
  A 0.41 0.41 0.0 0 1 107.87 21.96
  Q 107.10 20.98 106.22 21.29
  Q 106.03 21.36 106.14 21.54
  L 106.40 21.94
  Q 106.73 22.45 106.17 22.67
  Q 105.78 22.82 105.39 22.83
  A 0.56 0.55 -81.8 0 1 104.85 22.10
  Q 104.95 21.78 104.76 21.52
  Q 104.72 21.47 104.67 21.43
  Q 104.55 21.36 104.42 21.38
  A 0.28 0.28 0.0 0 0 104.20 21.61
  L 103.99 23.26
  Q 103.91 23.88 103.28 23.86
  Q 102.66 23.85 102.02 24.01
  Q 100.21 24.47 101.98 25.03
  Q 102.25 25.12 102.53 25.18
  Q 103.84 25.46 102.50 25.57
  Q 101.25 25.67 100.05 25.88
  Q 98.39 26.17 99.47 27.44
  Q 99.65 27.65 99.59 27.92
  Q 99.49 28.35 99.06 28.42
  Q 98.20 28.57 97.56 29.23
  Q 97.34 29.46 97.29 29.15
  Q 97.25 28.91 97.00 28.86
  Q 94.48 28.39 92.98 30.38
  Q 92.90 30.49 92.94 30.62
  Q 92.99 30.76 93.09 30.87
  Q 93.74 31.51 92.83 31.43
  Q 91.76 31.34 90.65 31.37
  Q 90.02 31.39 90.42 31.87
  Q 90.92 32.49 90.70 33.29
  Q 90.51 33.98 90.25 33.31
  Q 90.04 32.77 89.39 32.93
  A 0.68 0.68 0.0 0 0 88.88 33.59
  L 88.88 33.96
  Q 88.88 34.71 88.12 34.74
  Q 87.39 34.77 87.03 35.34
  Q 86.76 35.76 86.29 35.90
  Q 85.07 36.27 84.33 37.32
  Q 84.04 37.75 84.37 38.14
  Q 84.86 38.70 84.57 39.44
  Q 84.46 39.71 84.32 39.45
  Q 83.92 38.72 83.03 38.77
  Q 82.53 38.80 82.22 39.19
  Q 80.80 41.01 78.65 41.09
  Q 78.21 41.11 78.19 41.55
  Q 78.18 41.70 78.28 41.80
  Q 78.74 42.27 79.40 42.11
  Q 79.70 42.04 79.96 41.91
  Q 80.73 41.53 80.63 42.38
  Q 80.52 43.30 80.79 44.29
  Q 80.82 44.39 80.72 44.38
  Q 80.67 44.37 80.62 44.38
  Q 80.28 44.42 80.36 44.09
  Q 80.57 43.34 79.80 42.90
  A 0.80 0.80 0.0 0 0 78.60 43.56
  Q 78.58 44.06 78.68 44.58
  Q 78.72 44.82 78.48 44.81
  L 78.48 44.81
  Q 78.40 44.81 78.40 44.73
  Q 78.36 44.02 78.37 43.37
  A 0.49 0.49 0.0 0 0 77.86 42.86
  Q 77.20 42.88 76.81 43.43
  Q 76.58 43.75 76.63 44.14
  Q 76.70 44.74 76.10 44.87
  Q 75.33 45.04 74.87 44.40
  Q 74.42 43.75 74.18 44.51
  L 73.81 45.67
  Q 73.70 46.02 73.33 45.92
  Q 73.19 45.88 73.07 45.79
  Q 72.73 45.55 72.85 45.15
  Q 72.97 44.74 72.78 44.39
  Q 72.46 43.81 72.21 44.43
  Q 71.84 45.33 70.89 45.09
  A 0.59 0.58 -72.9 0 0 70.20 45.46
  Q 69.99 46.01 70.21 46.58
  Q 70.41 47.09 70.80 46.72
  Q 71.03 46.49 71.13 46.18
  Q 71.30 45.64 71.74 46.00
  Q 71.90 46.12 71.93 46.32
  Q 72.03 46.82 71.54 46.97
  Q 70.62 47.23 70.88 48.16
  Q 70.95 48.42 70.72 48.57
  Q 70.47 48.73 70.18 48.60
  Q 69.68 48.37 69.85 47.86
  Q 69.96 47.54 69.78 47.29
  Q 69.73 47.21 69.65 47.17
  Q 69.47 47.06 69.28 47.23
  A 0.30 0.29 -21.9 0 0 69.18 47.45
  Q 69.13 49.71 68.63 52.12
  Q 68.53 52.59 68.20 52.24
  Q 67.44 51.41 66.79 52.37
  Q 66.33 53.04 65.99 52.31
  Q 65.89 52.10 65.51 52.22
  Q 64.97 52.39 64.93 52.96
  L 64.86 54.00
  Q 64.81 54.63 64.19 54.72
  Q 63.21 54.85 62.07 55.00
  Q 59.31 55.36 61.94 56.13
  Q 62.25 56.22 62.91 56.27
  Q 64.30 56.38 62.92 56.62
  Q 62.67 56.66 62.40 56.61
  Q 61.98 56.52 61.61 56.73
  Q 61.22 56.96 60.76 56.86
  A 0.62 0.61 -83.6 0 0 60.01 57.46
  Q 60.01 57.85 59.68 57.87
  Q 59.15 57.90 58.95 58.39
  Q 58.83 58.68 58.87 58.97
  Q 58.94 59.44 58.62 59.78
  L 57.03 61.43
  Q 56.56 61.92 57.23 62.05
  Q 57.50 62.10 57.61 62.32
  Q 57.82 62.76 57.33 62.80
  L 53.85 63.07
  A 0.74 0.73 89.6 0 0 53.18 63.76
  Q 53.10 64.98 51.89 65.20
  Q 50.79 65.41 51.84 65.79
  Q 52.79 66.14 52.68 67.25
  Q 52.62 67.90 52.16 67.44
  Q 51.45 66.72 50.94 67.63
  Q 50.66 68.12 50.09 68.14
  Q 48.91 68.19 49.13 69.41
  A 1.63 1.63 0.0 0 1 48.96 70.47
  Q 48.59 71.14 47.80 71.21
  Q 47.02 71.28 47.61 71.80
  Q 47.77 71.94 47.99 71.90
  Q 48.20 71.86 47.99 71.83
  Q 47.42 71.75 47.10 72.19
  Q 46.73 72.71 46.87 73.40
  Q 46.98 73.98 46.84 74.51
  Q 46.64 75.29 46.23 74.59
  Q 46.17 74.49 46.11 74.37
  Q 45.76 73.69 45.26 74.26
  Q 44.70 74.88 43.95 75.09
  Q 42.85 75.40 43.86 75.93
  Q 44.49 76.27 45.15 76.09
  Q 45.48 76.00 45.13 76.01
  Q 44.72 76.04 44.39 76.27
  Q 44.15 76.43 44.06 76.72
  Q 43.27 79.33 41.02 79.18
  Q 40.55 79.15 40.74 79.58
  Q 41.12 80.48 40.40 81.26
  Q 39.84 81.88 40.09 81.08
  Q 40.15 80.92 40.14 80.74
  Q 40.14 80.07 39.48 80.17
  Q 39.05 80.24 38.96 80.64
  Q 38.78 81.51 38.92 82.46
  Q 39.01 83.05 38.43 82.91
  Q 37.64 82.72 37.11 83.38
  Q 36.81 83.76 37.25 83.95
  Q 37.82 84.20 37.88 84.84
  Q 37.99 85.91 36.92 85.75
  Q 36.30 85.66 35.91 86.20
  Q 35.69 86.51 35.84 86.85
  A 0.68 0.67 56.0 0 1 35.70 87.59
  Q 35.28 88.03 34.66 87.90
  A 0.58 0.58 0.0 0 0 34.00 88.68
  Q 34.23 89.29 34.48 89.36
  Q 34.67 89.41 34.56 89.58
  L 33.79 90.80
  Q 33.68 90.97 33.49 90.91
  Q 33.19 90.83 32.99 90.60
  Q 32.35 89.85 32.17 90.82
  L 31.51 94.36
  Q 31.47 94.58 31.25 94.62
  Q 30.25 94.83 30.67 95.91
  A 0.53 0.53 0.0 0 1 30.20 96.63
  Q 28.72 96.68 27.52 97.15
  A 0.82 0.82 0.0 0 0 27.00 97.97
  Q 27.09 99.34 26.13 100.16
  A 0.63 0.63 0.0 0 0 26.62 101.27
  Q 27.53 101.16 27.67 101.96
  Q 27.79 102.68 27.29 102.15
  Q 26.76 101.60 25.90 101.26
  Q 25.37 101.05 25.15 101.58
  Q 25.01 101.90 24.99 102.27
  Q 24.95 102.81 24.45 103.02
  Q 23.69 103.33 23.73 104.22
  Q 23.75 104.53 23.45 104.62
  Q 21.67 105.13 21.65 107.13
  Q 21.65 108.09 20.97 107.40
  Q 20.88 107.30 20.74 107.30
  Q 20.09 107.31 20.11 107.95
  Q 20.16 109.24 19.24 110.08
  Q 18.98 110.31 18.91 110.65
  L 18.57 112.27
  Q 18.45 112.82 18.09 112.38
  Q 17.94 112.20 17.89 111.97
  Q 17.65 110.91 17.36 111.96
  Q 17.10 112.90 16.41 113.66
  Q 16.07 114.04 16.17 114.54
  Q 16.22 114.77 16.40 114.94
  Q 17.12 115.65 16.11 115.63
  Q 15.41 115.62 15.17 116.35
  A 0.43 0.42 30.9 0 0 15.28 116.77
  L 15.48 116.97
  Q 15.90 117.39 15.46 117.80
  Q 14.58 118.62 14.67 119.91
  Q 14.71 120.44 14.24 120.68
  Q 13.70 120.95 13.34 121.43
  Q 13.12 121.72 13.11 122.09
  Q 13.05 124.37 11.34 125.62
  Q 11.16 125.75 11.11 125.97
  Q 11.09 126.05 11.15 126.10
  Q 11.69 126.55 11.01 126.72
  Q 10.20 126.92 10.14 127.76
  Q 10.04 128.92 9.50 129.99
  Q 9.25 130.49 8.89 130.92
  Q 8.47 131.43 8.62 132.12
  Q 8.70 132.44 8.41 132.61
  Q 6.51 133.76 6.61 136.18
  Q 6.62 136.63 6.28 136.93
  L 5.32 137.76
  Q 4.86 138.16 4.90 138.77
  Q 4.94 139.52 4.33 139.96
  Q 3.69 140.41 3.87 141.17
  Q 4.15 142.36 3.29 143.17
  A 1.23 1.21 69.8 0 0 2.91 144.01
  Q 2.76 149.08 0.60 152.99
  Q 0.35 153.46 0.40 153.99
  Q 0.60 156.10 0.00 157.89"
/>
<path stroke="#8fa5cb" vector-effect="non-scaling-stroke" d="
  M 258.09 0.00
  Q 188.97 5.03 133.17 40.93
  Q 87.90 70.06 56.99 113.01
  Q 23.80 159.13 11.63 217.17
  Q 6.65 240.91 6.21 264.21
  Q 5.84 283.39 7.13 298.94
  Q 10.27 336.66 22.94 372.55
  Q 26.05 381.38 30.63 391.13
  Q 41.21 413.69 54.01 432.88
  Q 54.88 434.18 55.92 435.26
  Q 56.30 435.64 56.80 435.46
  L 71.14 430.34"
/>
<path stroke="#98e0fa" vector-effect="non-scaling-stroke" d="
  M 71.14 430.34
  L 106.28 420.85"
/>
<path stroke="#97e1be" vector-effect="non-scaling-stroke" d="
  M 106.28 420.85
  Q 106.31 420.51 107.09 420.74"
/>
<path stroke="#f0f2fd" vector-effect="non-scaling-stroke" d="
  M 107.09 420.74
  Q 105.51 421.43 104.35 422.50
  Q 103.96 422.85 103.47 422.64
  Q 102.99 422.43 102.71 422.89
  Q 102.41 423.41 101.87 423.14
  Q 101.52 422.97 101.16 423.15
  Q 101.00 423.23 101.14 423.34
  Q 101.25 423.42 101.39 423.41
  Q 102.08 423.36 101.52 423.76
  Q 100.87 424.23 100.08 424.36
  Q 99.54 424.44 99.82 423.98
  Q 99.94 423.78 99.60 423.51
  Q 99.19 423.19 98.80 423.53
  Q 98.63 423.68 98.61 423.94
  Q 98.57 424.27 98.25 424.20
  L 97.76 424.09
  Q 96.96 423.92 97.63 424.38
  Q 98.40 424.92 99.27 425.09
  Q 99.78 425.19 100.12 425.58
  Q 101.46 427.05 101.95 428.78
  Q 102.06 429.19 101.86 429.56
  L 101.48 430.25
  Q 101.16 430.85 101.84 430.91
  Q 103.31 431.02 103.38 432.62
  Q 103.39 432.93 103.70 432.96
  Q 103.96 432.99 104.10 433.20
  Q 105.27 434.97 107.11 436.16
  Q 107.26 436.26 107.21 436.44
  Q 107.20 436.48 107.18 436.53
  Q 106.92 437.01 107.45 436.90
  Q 107.81 436.83 108.19 436.92
  Q 108.45 436.98 108.28 436.77
  Q 108.24 436.72 108.24 436.66
  Q 108.22 436.43 108.47 436.55
  Q 109.30 436.93 110.22 437.12"
/>
<path stroke="#8fa5cb" vector-effect="non-scaling-stroke" d="
  M 110.22 437.12
  L 66.15 447.73
  A 0.70 0.70 0.0 0 0 65.82 448.91
  Q 73.90 457.04 81.01 465.26
  Q 81.90 466.28 83.04 466.97
  Q 83.47 467.23 83.96 467.09
  C 113.42 458.72 142.18 454.18 173.21 450.71
  Q 213.20 446.24 252.25 444.85
  C 284.68 443.69 319.82 445.22 355.17 448.47
  C 394.73 452.09 429.50 457.00 465.69 467.55
  A 1.24 1.22 28.3 0 0 466.96 467.18
  Q 474.97 457.88 484.05 449.53
  A 0.38 0.37 32.7 0 0 483.91 448.90
  L 466.94 443.59"
/>
<path stroke="#f0f2fd" vector-effect="non-scaling-stroke" d="
  M 466.94 443.59
  L 468.46 443.14
  Q 469.00 442.99 469.43 443.36
  Q 469.94 443.81 470.57 443.92
  Q 471.06 444.01 470.74 443.63
  Q 470.45 443.29 470.78 442.99
  Q 470.99 442.80 470.72 442.87
  Q 470.42 442.95 470.18 442.74
  Q 469.82 442.45 470.27 442.33
  Q 471.43 442.03 472.60 442.03
  Q 472.86 442.03 472.89 441.77
  Q 472.90 441.57 472.72 441.60
  Q 472.44 441.65 472.49 441.37
  Q 472.55 441.03 472.87 440.97
  Q 473.38 440.88 473.02 440.51
  L 472.75 440.25
  Q 472.52 440.02 472.65 439.72
  Q 472.74 439.49 472.91 439.32
  A 0.85 0.85 0.0 0 1 473.77 439.12
  L 474.60 439.38
  Q 475.15 439.55 475.59 439.17
  Q 476.31 438.55 477.28 438.46
  Q 477.87 438.41 477.88 437.81
  L 477.88 437.03
  Q 477.88 436.50 478.38 436.31
  Q 480.48 435.51 480.87 433.65
  Q 480.98 433.10 481.53 433.16
  L 482.87 433.30
  Q 483.23 433.33 483.58 433.21
  Q 484.13 433.01 484.00 432.80
  Q 483.44 431.89 484.38 432.40
  Q 486.22 433.38 487.16 432.60"
/>
<path stroke="#8fa5cb" vector-effect="non-scaling-stroke" d="
  M 487.16 432.60
  L 493.76 435.07
  A 0.90 0.89 -63.9 0 0 494.85 434.69
  Q 506.29 415.71 515.88 395.44
  Q 537.00 350.79 542.00 301.54"
/>
<path stroke="#8fa5cb" vector-effect="non-scaling-stroke" d="
  M 278.76 569.00
  Q 321.76 550.66 365.33 533.40
  Q 391.93 522.87 418.86 510.90
  A 0.67 0.67 0.0 0 0 418.83 509.66
  Q 418.11 509.38 417.35 509.29
  Q 401.76 507.49 385.75 508.69
  Q 339.60 512.15 293.91 519.96
  Q 287.77 521.01 281.39 522.08
  Q 278.41 522.58 275.31 522.01
  Q 217.74 511.30 157.36 508.54
  Q 144.43 507.95 131.03 509.35
  Q 130.31 509.43 130.19 510.08
  A 0.83 0.81 17.7 0 0 130.67 510.98
  C 150.75 519.81 171.20 528.65 191.88 536.54
  Q 232.15 551.91 271.80 569.00"
/>
<path stroke="#ebebfe" vector-effect="non-scaling-stroke" d="
  M 252.01 569.00
  Q 251.76 568.58 250.52 567.75
  Q 249.54 567.10 249.91 565.89
  Q 250.07 565.36 249.51 565.36
  L 245.97 565.41
  Q 245.46 565.41 245.05 565.09
  Q 244.22 564.43 243.53 563.79
  Q 242.54 562.88 241.25 563.22
  Q 240.74 563.35 240.36 562.98
  Q 239.74 562.37 239.81 561.50
  Q 239.88 560.60 239.07 560.28
  Q 238.87 560.20 238.97 560.00
  Q 239.32 559.37 238.60 559.37
  Q 237.50 559.37 236.37 559.46
  Q 236.22 559.47 236.16 559.34
  Q 236.10 559.23 236.19 559.08
  Q 236.22 559.04 236.13 559.01
  L 232.66 557.50
  Q 232.22 557.31 231.75 557.37
  L 229.74 557.65
  Q 229.25 557.72 228.96 557.32
  Q 228.78 557.08 228.87 556.81
  Q 229.03 556.30 228.52 556.14
  Q 227.31 555.78 226.71 556.63
  Q 226.43 557.02 225.96 556.96
  Q 225.04 556.83 224.38 556.38
  Q 223.72 555.91 222.97 556.25
  Q 221.77 556.79 220.36 556.94
  A 1.25 1.25 0.0 0 1 218.99 555.87
  Q 218.87 554.98 219.36 554.36
  Q 219.83 553.77 219.09 553.58
  Q 218.84 553.52 219.00 553.35
  Q 219.61 552.73 219.02 552.08
  Q 217.62 550.53 215.68 551.39
  Q 215.14 551.63 214.81 551.14
  C 213.98 549.86 212.49 550.35 211.62 549.08
  A 0.45 0.45 0.0 0 0 210.87 549.09
  Q 210.56 549.60 210.16 549.16
  Q 209.80 548.76 209.27 548.89
  Q 208.02 549.21 206.72 549.34
  Q 205.56 549.45 205.01 548.46
  Q 204.78 548.06 204.32 547.93
  Q 201.62 547.20 199.58 548.00
  Q 198.96 548.24 198.30 548.02
  Q 197.53 547.77 197.39 546.99
  Q 197.29 546.46 197.65 546.06
  Q 198.00 545.68 197.60 545.33
  Q 197.32 545.09 197.36 544.72
  L 197.45 543.76
  Q 197.50 543.24 197.13 543.61
  L 196.90 543.85
  Q 196.51 544.23 196.06 543.94
  Q 195.65 543.67 195.39 543.29
  Q 195.07 542.83 194.52 542.93
  Q 191.40 543.55 189.41 541.17
  C 188.20 539.73 186.14 539.41 184.55 540.25
  Q 183.91 540.58 183.29 540.21
  Q 182.32 539.64 181.38 540.16
  A 1.52 1.52 0.0 0 1 179.13 538.83
  L 179.13 537.08
  Q 179.13 536.79 178.90 536.61
  Q 177.31 535.36 175.69 535.68
  Q 175.21 535.77 174.83 535.47
  Q 173.32 534.28 171.51 533.24
  Q 171.28 533.10 171.00 533.10
  Q 170.72 533.09 170.46 533.18
  Q 170.01 533.34 169.58 533.14
  Q 167.28 532.09 164.88 532.15
  A 0.94 0.92 68.8 0 1 164.15 531.82
  Q 163.98 531.62 163.86 531.38
  Q 163.60 530.87 163.04 530.74
  L 159.88 529.98
  Q 159.38 529.86 159.02 530.21
  Q 157.15 531.98 154.53 532.37
  A 1.12 1.08 8.3 0 1 153.34 530.83
  Q 153.48 530.54 153.28 530.30
  Q 152.80 529.70 153.41 529.23
  Q 154.17 528.66 154.43 527.72
  Q 154.58 527.18 154.29 526.71
  Q 153.17 524.88 151.26 525.08
  Q 150.74 525.14 150.36 524.78
  Q 149.51 523.95 148.47 524.45
  Q 148.33 524.53 148.25 524.38
  Q 147.62 523.26 146.27 523.14
  Q 145.00 523.03 143.72 523.04
  C 142.74 523.06 141.98 522.52 141.62 521.63
  Q 141.39 521.04 140.80 520.83
  Q 136.20 519.12 131.63 515.86
  A 3.36 3.33 55.0 0 0 128.82 515.35
  Q 124.96 516.38 122.77 513.29
  Q 122.45 512.84 121.91 512.72
  L 119.73 512.25
  Q 119.26 512.15 119.30 511.67
  Q 119.36 511.00 118.70 510.74
  Q 118.25 510.55 117.99 510.14
  Q 117.21 508.91 116.74 507.55
  C 116.18 505.92 114.59 504.84 113.08 504.22
  Q 110.61 503.21 108.55 501.34
  Q 107.53 500.42 106.23 500.74
  Q 104.83 501.09 104.01 500.00
  Q 103.68 499.56 103.97 499.08
  Q 104.29 498.54 104.05 497.95
  Q 103.83 497.44 103.27 497.41
  Q 101.98 497.36 100.95 498.11
  Q 100.56 498.40 100.06 498.45
  Q 99.68 498.49 99.41 498.26
  Q 99.01 497.92 99.26 497.47
  Q 99.84 496.37 99.62 495.07
  A 0.90 0.90 0.0 0 0 98.28 494.44
  C 96.22 495.63 95.48 493.58 93.44 494.19
  Q 92.83 494.37 92.87 495.00
  Q 92.92 496.01 91.88 496.27
  Q 91.38 496.39 91.03 496.01
  Q 90.09 494.99 88.82 495.29
  A 0.47 0.47 0.0 0 1 88.29 495.05
  Q 87.98 494.47 88.15 493.83
  A 0.32 0.31 -69.7 0 0 88.00 493.49
  Q 86.29 492.55 86.99 490.30
  Q 87.51 488.63 85.80 488.25
  Q 85.02 488.08 84.91 487.28
  Q 84.84 486.80 84.44 486.53
  Q 82.47 485.20 80.29 484.89
  Q 79.87 484.83 79.81 484.40
  Q 79.46 481.95 77.19 481.84
  Q 76.73 481.81 76.42 481.46
  Q 76.27 481.30 76.22 481.10
  Q 76.13 480.76 75.88 480.51
  L 74.08 478.77
  Q 73.78 478.48 74.08 478.18
  L 74.38 477.88
  Q 74.77 477.49 74.47 477.03
  Q 73.58 475.69 73.71 473.82
  Q 73.74 473.43 73.36 473.34
  Q 71.92 473.00 71.12 471.53
  Q 70.93 471.18 71.27 470.99
  Q 71.42 470.90 71.51 470.75
  Q 71.71 470.41 71.47 470.08
  L 70.37 468.62
  A 0.75 0.74 60.0 0 0 69.49 468.38
  L 67.75 469.11
  Q 67.16 469.35 66.79 468.84
  Q 65.99 467.76 65.92 466.41
  Q 65.92 466.37 65.88 466.37
  L 65.51 466.37
  Q 65.20 466.36 65.04 466.10
  Q 64.81 465.74 64.34 465.84
  Q 63.77 465.96 63.31 465.61
  Q 61.55 464.26 61.73 461.92
  Q 61.78 461.34 61.21 461.32
  Q 60.61 461.31 60.16 461.66
  Q 59.73 462.00 59.18 461.90
  Q 57.84 461.67 57.94 460.01
  Q 57.97 459.56 57.65 459.25
  Q 55.74 457.41 55.56 454.94
  Q 55.52 454.36 54.93 454.33
  Q 54.33 454.30 53.98 453.84
  Q 53.72 453.49 53.30 453.42
  L 51.03 453.02
  A 1.45 1.42 -15.0 0 1 50.20 452.55
  Q 49.66 451.90 48.78 451.89
  Q 48.22 451.87 48.18 451.31
  Q 48.03 448.67 45.48 447.98
  Q 45.00 447.85 44.78 447.40
  L 44.07 445.90
  Q 43.83 445.40 43.27 445.32
  C 42.64 445.24 42.17 444.88 41.84 444.34
  Q 40.53 442.22 39.80 439.99
  Q 39.65 439.52 40.01 439.18
  Q 41.00 438.22 40.62 436.64
  Q 40.48 436.07 40.19 436.58
  Q 39.85 437.21 39.17 436.73
  A 0.73 0.73 0.0 0 1 38.87 436.05
  Q 38.95 435.31 38.68 434.62
  Q 38.46 434.03 38.07 434.51
  Q 37.69 434.97 37.24 434.64
  Q 36.74 434.28 36.34 434.76
  Q 36.15 434.99 35.96 435.23
  Q 35.62 435.67 35.11 435.43
  Q 33.85 434.82 33.32 433.80
  Q 32.49 432.20 34.22 431.78
  Q 34.99 431.59 34.47 430.99
  Q 33.96 430.40 33.90 429.61
  Q 33.87 429.23 33.49 429.15
  L 32.04 428.82
  Q 31.35 428.67 31.60 428.00
  Q 31.88 427.26 31.24 426.88
  Q 30.81 426.62 30.82 426.12
  Q 30.90 423.12 29.87 420.75
  Q 29.67 420.30 29.25 420.55
  Q 27.86 421.36 27.82 422.67
  Q 27.81 422.96 27.52 422.93
  L 27.26 422.91
  A 0.23 0.22 -82.0 0 1 27.06 422.64
  Q 27.72 419.40 25.44 417.70
  Q 25.23 417.54 25.16 417.29
  Q 25.14 417.24 25.15 417.18
  Q 25.24 416.70 24.78 416.54
  Q 24.01 416.26 23.92 414.99
  Q 23.76 412.88 23.59 410.81
  A 0.05 0.05 0.0 0 0 23.51 410.78
  Q 23.21 411.06 23.05 410.71
  Q 22.96 410.51 22.94 410.29
  Q 22.71 407.75 21.74 405.39
  Q 21.55 404.94 21.10 405.14
  Q 20.94 405.22 20.89 405.38
  Q 20.57 406.38 20.15 405.42
  Q 19.69 404.36 18.76 403.68
  Q 18.29 403.33 18.30 402.75
  Q 18.31 402.04 17.78 401.64
  A 2.78 2.07 79.9 0 1 17.44 401.32
  Q 17.32 401.18 17.43 401.09
  Q 17.92 400.70 17.62 400.15
  Q 17.23 399.43 16.93 398.67
  Q 16.87 398.52 16.86 398.35
  Q 16.85 398.17 17.00 398.07
  Q 17.38 397.82 17.37 397.36
  Q 17.36 396.67 16.84 396.61
  A 0.56 0.55 -15.3 0 1 16.43 396.38
  Q 16.26 396.15 16.25 395.90
  Q 16.24 395.28 15.62 395.36
  Q 14.81 395.47 14.64 394.62
  A 1.39 1.38 -78.5 0 0 14.06 393.74
  Q 12.31 392.52 12.42 390.06
  Q 12.44 389.56 11.96 389.42
  Q 11.33 389.23 10.90 389.77
  A 0.40 0.39 -39.6 0 1 10.24 389.71
  Q 9.75 388.74 10.07 387.83
  A 0.94 0.90 -56.3 0 0 9.91 386.94
  Q 9.05 385.91 8.71 384.62
  Q 8.62 384.27 8.36 384.01
  Q 7.41 383.08 8.13 381.84
  A 1.14 1.11 45.2 0 0 8.12 380.73
  Q 7.85 380.27 7.92 379.71
  A 2.45 2.26 -80.5 0 0 6.20 377.07
  Q 5.03 376.81 4.29 375.70
  Q 4.12 375.44 4.29 375.19
  Q 4.48 374.92 4.79 374.78
  Q 5.55 374.42 4.72 374.32
  Q 4.45 374.30 4.31 374.07
  Q 4.06 373.65 4.06 374.14
  Q 4.06 374.33 3.84 374.39
  Q 3.37 374.53 3.18 374.08
  L 1.89 371.15
  A 1.12 1.11 55.6 0 1 2.12 369.91
  Q 2.64 369.39 2.10 368.91
  A 1.38 1.34 19.5 0 1 1.65 368.00
  Q 1.39 365.02 0.88 361.83
  Q 0.39 358.82 0.29 355.64
  Q 0.17 351.94 0.00 348.24"
/>
<path stroke="#8fa5cb" vector-effect="non-scaling-stroke" d="
  M 450.63 485.89
  C 439.06 482.62 427.26 480.00 414.84 477.70
  Q 335.96 463.11 257.28 464.95
  Q 247.88 465.17 237.27 465.77
  Q 166.48 469.83 98.08 485.96
  A 0.50 0.50 0.0 0 0 97.89 486.84
  L 117.41 501.64
  A 2.28 2.26 56.6 0 0 119.31 502.04
  Q 128.97 499.67 139.16 498.02
  Q 236.89 482.14 337.74 489.42
  Q 374.57 492.07 407.28 497.47
  Q 418.84 499.38 430.32 502.02
  A 1.99 1.97 31.5 0 0 432.00 501.63
  L 450.75 486.44
  A 0.32 0.32 0.0 0 0 450.63 485.89"
/>
<path stroke="#8fa5cb" vector-effect="non-scaling-stroke" d="
  M 292.61 0.00
  Q 324.88 2.15 353.76 10.78
  C 391.45 22.04 426.99 44.00 456.12 71.16
  Q 491.18 103.85 512.33 146.61
  Q 523.27 168.71 529.66 188.51
  Q 539.63 219.36 542.00 254.01"
/>
<path stroke="#92a8cb" vector-effect="non-scaling-stroke" d="
  M 487.16 432.60
  L 478.91 429.66"
/>
<path stroke="#7943ab" vector-effect="non-scaling-stroke" d="
  M 478.91 429.66
  Q 483.91 423.48 487.27 416.25"
/>
<path stroke="#90a6cb" vector-effect="non-scaling-stroke" d="
  M 487.27 416.25
  Q 489.77 413.05 491.63 409.65
  Q 497.99 398.05 503.49 386.03
  C 512.09 367.24 518.09 347.33 522.31 326.99
  Q 525.60 311.16 526.57 292.74
  C 528.25 260.60 525.48 229.03 516.84 199.37
  Q 492.98 117.55 424.94 65.26
  Q 387.77 36.69 343.35 24.61
  Q 301.87 13.33 258.48 15.97
  Q 248.76 16.57 238.86 18.13
  C 212.38 22.33 186.53 30.05 163.03 42.01
  C 133.57 57.01 108.61 75.84 86.72 100.88
  Q 76.56 112.51 69.04 122.99
  C 50.51 148.85 37.06 179.42 28.86 211.58
  Q 24.15 230.03 22.60 249.55
  Q 18.60 299.92 31.59 348.42
  Q 34.11 357.82 37.57 367.19
  Q 48.59 397.02 66.55 423.28"
/>
<path stroke="#3997c8" vector-effect="non-scaling-stroke" d="
  M 66.55 423.28
  Q 67.91 427.09 71.14 430.34"
/>
<path stroke="#d98edd" vector-effect="non-scaling-stroke" d="
  M 487.27 416.25
  L 487.78 402.22"
/>
<path stroke="#e29be0" vector-effect="non-scaling-stroke" d="
  M 487.78 402.22
  L 488.19 326.05
  Q 488.19 325.33 487.52 325.08
  L 465.54 316.74
  Q 464.74 316.44 464.74 317.29
  L 464.73 319.71"
/>
<path stroke="#f1f3fd" vector-effect="non-scaling-stroke" d="
  M 464.73 319.71
  Q 464.48 319.54 464.36 319.22
  Q 464.13 318.59 463.57 318.98
  Q 463.29 319.18 462.98 319.36
  Q 462.51 319.65 462.13 319.26
  L 461.05 318.14"
/>
<path stroke="#f2c0b1" vector-effect="non-scaling-stroke" d="
  M 461.05 318.14
  L 461.24 296.27
  Q 461.25 295.64 460.63 295.47
  L 436.61 288.82"
/>
<path stroke="#f4cfb3" vector-effect="non-scaling-stroke" d="
  M 436.61 288.82
  L 410.46 280.86"
/>
<path stroke="#90a6cb" vector-effect="non-scaling-stroke" d="
  M 410.46 280.86
  L 446.00 276.33
  Q 446.52 276.26 446.27 275.80
  Q 445.44 274.24 444.09 273.13
  Q 417.54 251.34 389.50 227.75
  Q 389.12 227.43 389.12 226.94
  L 389.14 143.67
  Q 389.14 143.07 388.56 142.95
  Q 387.78 142.79 386.98 142.80
  Q 368.16 142.85 346.20 142.79
  A 0.54 0.54 0.0 0 0 345.66 143.33
  L 345.92 196.03
  A 0.22 0.22 0.0 0 1 345.58 196.21
  Q 344.16 195.25 342.88 194.21
  Q 315.41 171.90 285.01 145.57
  A 0.86 0.86 0.0 0 0 283.91 145.55
  L 225.07 193.81
  Q 223.93 194.74 224.03 193.27
  L 224.59 184.53
  Q 224.64 183.66 223.77 183.66
  L 184.03 183.41
  A 0.56 0.56 0.0 0 0 183.47 183.97
  L 183.52 230.54
  Q 183.52 231.04 183.18 231.42
  Q 181.82 232.95 180.22 234.30
  Q 146.65 262.67 115.03 289.77
  A 0.79 0.79 0.0 0 0 115.38 291.14
  L 142.30 296.97"
/>
<path stroke="#95e0bf" vector-effect="non-scaling-stroke" d="
  M 142.30 296.97
  Q 142.47 297.70 142.24 298.30"
/>
<path stroke="#abe7bf" vector-effect="non-scaling-stroke" d="
  M 142.24 298.30
  Q 138.86 299.13 137.00 299.27
  Q 123.01 300.33 108.77 300.98
  A 0.88 0.88 0.0 0 0 107.93 301.86
  L 108.02 323.63"
/>
<path stroke="#a3e5fc" vector-effect="non-scaling-stroke" d="
  M 108.02 323.63
  L 65.34 339.02
  Q 64.79 339.22 64.80 339.80
  L 65.07 399.79"
/>
<path stroke="#99e2fa" vector-effect="non-scaling-stroke" d="
  M 65.07 399.79
  Q 64.67 411.81 66.55 423.28"
/>
<path stroke="#948481" vector-effect="non-scaling-stroke" d="
  M 410.46 280.86
  Q 409.58 280.72 408.34 281.16"
/>
<path stroke="#8e668a" vector-effect="non-scaling-stroke" d="
  M 408.34 281.16
  L 377.05 285.65"
/>
<path stroke="#875c92" vector-effect="non-scaling-stroke" d="
  M 377.05 285.65
  Q 374.52 285.63 373.11 284.39
  Q 360.10 273.00 346.91 260.78"
/>
<path stroke="#93a9cb" vector-effect="non-scaling-stroke" d="
  M 346.91 260.78
  L 283.12 205.51
  A 1.32 1.31 -45.2 0 0 281.38 205.52
  L 218.52 261.02"
/>
<path stroke="#35958d" vector-effect="non-scaling-stroke" d="
  M 218.52 261.02
  L 175.88 302.71
  A 2.52 2.50 -61.2 0 1 173.64 303.37
  L 142.30 296.97"
/>
<path stroke="#eaaac4" vector-effect="non-scaling-stroke" d="
  M 346.91 260.78
  Q 345.86 275.89 346.94 291.58"
/>
<path stroke="#93a9cb" vector-effect="non-scaling-stroke" d="
  M 346.94 291.58
  L 283.00 238.74
  A 0.27 0.26 43.9 0 0 282.67 238.74
  L 218.65 291.67"
/>
<path stroke="#98e3bf" vector-effect="non-scaling-stroke" d="
  M 218.65 291.67
  L 218.52 261.02"
/>
<path stroke="#875c92" vector-effect="non-scaling-stroke" d="
  M 346.94 291.58
  L 362.43 304.28
  A 0.78 0.78 0.0 0 1 362.39 305.51
  Q 362.13 305.70 361.78 305.70
  Q 353.80 305.78 345.59 305.76
  A 0.27 0.27 0.0 0 0 345.32 306.04
  L 345.58 325.51"
/>
<path stroke="#7f4f92" vector-effect="non-scaling-stroke" d="
  M 345.58 325.51
  L 345.22 405.92"
/>
<path stroke="#92a8cb" vector-effect="non-scaling-stroke" d="
  M 345.22 405.92
  L 308.07 405.44
  Q 307.14 405.43 307.14 404.50
  Q 307.21 378.25 307.27 350.69
  C 307.28 341.54 305.78 335.20 297.93 329.41
  C 280.52 316.57 256.51 326.97 256.34 348.89
  Q 256.10 378.26 256.52 404.41
  A 1.01 1.01 0.0 0 1 255.52 405.44
  L 220.23 405.73"
/>
<path stroke="#228a8e" vector-effect="non-scaling-stroke" d="
  M 220.23 405.73
  L 220.35 339.33"
/>
<path stroke="#2d908f" vector-effect="non-scaling-stroke" d="
  M 220.35 339.33
  L 220.46 306.68
  Q 220.46 306.02 219.79 306.02
  L 201.75 306.02"
/>
<path stroke="#35958d" vector-effect="non-scaling-stroke" d="
  M 201.75 306.02
  Q 210.37 297.67 218.65 291.67"
/>
<path stroke="#e56783" vector-effect="non-scaling-stroke" d="
  M 377.05 285.65
  Q 378.30 302.92 377.71 320.28"
/>
<path stroke="#d64f8b" vector-effect="non-scaling-stroke" d="
  M 377.71 320.28
  Q 377.00 318.38 374.26 319.64
  Q 371.71 320.82 369.37 321.94
  Q 368.50 322.36 367.61 322.60
  Q 366.68 322.85 365.83 323.30
  Q 364.54 323.98 363.10 324.34
  Q 357.05 325.88 350.98 327.39
  Q 350.52 327.50 350.64 327.96
  Q 350.74 328.32 350.07 328.54
  Q 349.69 328.66 349.30 328.71
  Q 348.47 328.80 347.71 329.08
  Q 347.23 329.26 347.02 328.79
  L 345.58 325.51"
/>
<path stroke="#32ca83" vector-effect="non-scaling-stroke" d="
  M 201.75 306.02
  Q 196.82 307.77 191.03 308.98
  Q 187.00 309.83 183.03 310.80
  Q 179.01 311.77 174.99 312.52
  C 174.16 312.68 173.44 313.24 172.67 313.37
  Q 171.35 313.61 170.93 313.80
  C 169.35 314.49 167.78 314.99 166.33 315.95
  Q 165.82 316.29 165.20 316.12
  A 0.87 0.85 30.8 0 0 164.38 316.32
  C 163.28 317.32 162.03 317.02 160.72 317.39
  Q 156.94 318.45 153.12 319.34
  Q 152.97 319.37 152.84 319.27
  Q 152.80 319.23 152.75 319.21
  Q 152.58 319.13 152.42 319.21
  Q 151.53 319.65 150.68 319.39
  Q 149.98 319.17 149.19 319.20
  Q 146.26 319.30 143.16 319.24
  Q 142.59 319.22 142.56 319.80
  Q 142.53 320.45 142.27 320.72"
/>
<path stroke="#51d681" vector-effect="non-scaling-stroke" d="
  M 142.27 320.72
  L 142.24 298.30"
/>
<path stroke="#f69e67" vector-effect="non-scaling-stroke" d="
  M 436.61 288.82
  L 436.69 333.64"
/>
<path stroke="#f18a71" vector-effect="non-scaling-stroke" d="
  M 436.69 333.64
  L 436.60 343.20"
/>
<path stroke="#f49a75" vector-effect="non-scaling-stroke" d="
  M 436.60 343.20
  Q 433.98 345.11 428.24 345.71
  Q 419.70 346.60 414.32 346.14
  Q 412.78 346.01 411.27 345.56
  A 1.67 1.65 45.3 0 0 410.31 345.55
  L 408.29 346.14"
/>
<path stroke="#ec8078" vector-effect="non-scaling-stroke" d="
  M 408.29 346.14
  L 408.47 328.52"
/>
<path stroke="#f28f72" vector-effect="non-scaling-stroke" d="
  M 408.47 328.52
  L 408.34 281.16"
/>
<path stroke="#e56281" vector-effect="non-scaling-stroke" d="
  M 408.47 328.52
  L 402.38 328.12
  A 1.78 1.77 -26.8 0 1 401.55 327.85
  Q 399.20 326.44 396.86 326.70
  C 395.01 326.90 393.41 326.55 391.52 326.73
  Q 388.58 327.00 385.67 326.46
  Q 385.09 326.35 384.35 326.45
  Q 383.74 326.53 383.17 326.52
  Q 382.69 326.52 382.37 326.16
  Q 381.69 325.38 380.70 325.63
  Q 379.95 325.82 379.24 325.63
  Q 377.94 325.28 377.76 323.77"
/>
<path stroke="#dd5a83" vector-effect="non-scaling-stroke" d="
  M 377.76 323.77
  L 377.71 320.28"
/>
<path stroke="#f4c2b1" vector-effect="non-scaling-stroke" d="
  M 461.05 318.14
  L 460.91 320.54"
/>
<path stroke="#ef7b6f" vector-effect="non-scaling-stroke" d="
  M 460.91 320.54
  Q 460.83 321.89 460.82 323.25
  Q 460.82 323.82 460.40 324.18
  Q 460.16 324.39 460.16 324.71
  Q 460.16 325.70 459.27 325.80
  Q 458.78 325.85 458.35 326.03
  Q 447.91 330.40 436.69 333.64"
/>
<path stroke="#49d182" vector-effect="non-scaling-stroke" d="
  M 142.27 320.72
  L 142.26 358.09"
/>
<path stroke="#3ecb81" vector-effect="non-scaling-stroke" d="
  M 142.26 358.09
  L 142.27 373.54"
/>
<path stroke="#54d880" vector-effect="non-scaling-stroke" d="
  M 142.27 373.54
  Q 139.44 375.82 133.66 375.52
  Q 132.21 375.45 130.91 375.72
  Q 129.52 376.00 128.14 376.16
  Q 127.36 376.24 127.63 375.51
  Q 127.75 375.17 127.43 375.01
  Q 127.01 374.80 126.52 374.89
  Q 124.26 375.30 122.01 375.76
  Q 120.21 376.14 117.48 375.84
  Q 112.17 375.26 107.73 376.72"
/>
<path stroke="#5fdbbd" vector-effect="non-scaling-stroke" d="
  M 107.73 376.72
  L 108.02 323.63"
/>
<path stroke="#1fbf83" vector-effect="non-scaling-stroke" d="
  M 220.35 339.33
  Q 220.09 339.31 220.03 339.77
  Q 219.93 340.50 219.32 340.09
  Q 219.18 340.00 219.04 339.93
  Q 218.86 339.86 218.70 339.98
  Q 217.66 340.79 216.48 341.01
  Q 215.00 341.28 214.35 341.61
  Q 212.24 342.70 210.01 343.76
  Q 208.74 344.36 207.39 344.46
  Q 205.97 344.57 204.64 345.02
  Q 202.70 345.69 200.79 346.16
  C 197.72 346.91 194.91 347.79 191.75 347.60
  Q 191.17 347.56 191.36 348.11
  Q 191.42 348.28 191.28 348.40
  Q 191.02 348.62 190.67 348.68
  Q 188.99 349.00 187.25 349.66
  A 2.05 2.03 -52.6 0 1 186.30 349.79
  Q 184.81 349.66 183.90 350.59
  Q 183.78 350.71 183.74 350.55
  Q 183.72 350.40 183.82 350.29
  A 0.08 0.08 0.0 0 0 183.77 350.16
  Q 182.15 350.07 180.98 351.08
  Q 180.62 351.39 180.16 351.29
  Q 179.33 351.09 177.76 351.33
  Q 166.94 353.00 156.08 354.47
  C 154.88 354.64 153.88 354.31 152.66 354.61
  A 0.73 0.73 0.0 0 1 151.83 354.23
  Q 151.57 353.73 151.02 353.82
  Q 150.74 353.86 150.84 354.13
  Q 150.89 354.26 150.85 354.39
  Q 150.66 355.09 150.09 354.64
  Q 149.48 354.15 148.75 354.16
  Q 146.76 354.19 144.84 353.96
  Q 144.46 353.91 144.14 354.13
  L 143.54 354.54
  A 0.08 0.08 0.0 0 1 143.42 354.48
  Q 143.39 354.25 143.28 354.06
  Q 143.05 353.66 142.97 354.12
  L 142.26 358.09"
/>
<path stroke="#cc38c0" vector-effect="non-scaling-stroke" d="
  M 487.78 402.22
  L 487.51 398.82
  Q 487.47 398.30 487.23 398.77
  Q 486.93 399.34 487.13 400.13
  Q 487.23 400.52 487.18 400.12
  Q 487.16 399.90 487.14 399.67
  Q 487.07 398.85 486.61 399.53
  Q 486.32 399.96 486.40 400.43
  Q 486.46 400.83 486.12 400.61
  L 485.85 400.44
  A 0.63 0.63 0.0 0 0 484.95 400.66
  L 484.57 401.36
  A 0.63 0.62 21.4 0 1 483.87 401.66
  Q 479.80 400.52 476.59 400.81
  Q 473.09 401.12 469.26 401.76
  Q 468.22 401.93 467.83 402.87
  Q 467.76 403.03 467.60 403.10
  Q 467.44 403.17 467.25 403.07
  Q 466.93 402.90 466.92 402.54
  Q 466.91 402.22 466.71 401.99
  Q 466.22 401.42 466.09 402.16
  L 465.30 406.72"
/>
<path stroke="#e49de0" vector-effect="non-scaling-stroke" d="
  M 465.30 406.72
  L 464.73 319.71"
/>
<path stroke="#db90dd" vector-effect="non-scaling-stroke" d="
  M 465.30 406.72
  L 465.29 424.69
  A 0.70 0.69 9.3 0 0 465.77 425.35
  L 478.91 429.66"
/>
<path stroke="#92a8cb" vector-effect="non-scaling-stroke" d="
  M 466.94 443.59
  Q 456.85 441.06 446.70 438.72
  Q 369.62 420.99 290.50 419.91
  C 229.33 419.08 169.64 424.63 110.22 437.12"
/>
<path stroke="#9ae4be" vector-effect="non-scaling-stroke" d="
  M 107.09 420.74
  L 108.71 420.16
  Q 109.29 419.95 109.50 419.37
  C 111.01 415.34 112.48 412.43 116.32 409.88
  C 122.83 405.57 130.52 404.48 138.47 405.98
  Q 139.02 406.08 139.20 405.55
  Q 140.69 400.93 142.88 398.17"
/>
<path stroke="#84d7c0" vector-effect="non-scaling-stroke" d="
  M 142.88 398.17
  Q 151.81 390.94 162.99 391.16
  Q 172.21 391.34 177.37 395.68
  Q 177.83 396.07 178.33 395.75
  Q 179.53 395.01 180.81 394.28
  C 185.33 391.69 192.48 392.50 197.57 394.00
  Q 206.63 396.66 211.56 405.06
  A 1.35 1.34 74.8 0 0 212.72 405.73
  L 220.23 405.73"
/>
<path stroke="#e19cc4" vector-effect="non-scaling-stroke" d="
  M 345.22 405.92
  Q 345.92 406.58 347.12 405.84
  Q 347.74 405.45 348.22 404.50
  C 354.04 393.02 368.39 390.00 379.89 393.87"
/>
<path stroke="#e9a4c2" vector-effect="non-scaling-stroke" d="
  M 379.89 393.87
  L 382.49 395.35
  Q 382.95 395.61 383.31 395.22
  C 389.19 388.88 400.47 389.59 407.52 393.14"
/>
<path stroke="#f2bebf" vector-effect="non-scaling-stroke" d="
  M 407.52 393.14
  Q 412.41 394.85 415.96 398.54
  Q 416.96 399.57 419.05 404.79
  Q 419.25 405.28 419.77 405.34
  Q 420.84 405.46 422.00 405.50
  Q 428.25 405.69 434.14 408.14"
/>
<path stroke="#eeaebb" vector-effect="non-scaling-stroke" d="
  M 434.14 408.14
  Q 441.88 411.70 444.13 418.92
  A 0.88 0.86 -0.5 0 0 444.72 419.49
  L 460.39 424.15
  Q 460.96 424.32 461.04 423.73
  Q 461.08 423.37 460.91 423.02
  Q 460.71 422.61 460.71 422.15
  L 460.91 320.54"
/>
<path stroke="#d74b88" vector-effect="non-scaling-stroke" d="
  M 377.76 323.77
  Q 377.25 351.97 377.37 380.15
  Q 377.37 380.23 377.10 385.33
  Q 376.94 388.38 377.59 391.39
  Q 377.70 391.88 378.17 392.05
  Q 380.48 392.88 379.89 393.87"
/>
<path stroke="#ed777d" vector-effect="non-scaling-stroke" d="
  M 434.14 408.14
  Q 435.47 406.77 435.96 405.67
  Q 436.15 405.22 436.13 404.74
  C 436.08 403.94 436.34 403.39 436.34 402.58
  Q 436.60 372.92 436.60 343.20"
/>
<path stroke="#4cd6bd" vector-effect="non-scaling-stroke" d="
  M 107.73 376.72
  L 107.69 390.89"
/>
<path stroke="#4dd6f9" vector-effect="non-scaling-stroke" d="
  M 107.69 390.89
  Q 107.35 392.96 104.32 393.76
  Q 101.59 394.48 100.75 394.81
  Q 99.03 395.50 97.26 396.11
  Q 96.68 396.32 96.05 396.34
  Q 95.34 396.36 95.37 397.05
  Q 95.39 397.67 94.90 397.30
  Q 94.72 397.16 94.51 397.15
  Q 94.14 397.12 93.88 397.37
  Q 93.35 397.90 92.76 397.42
  Q 92.32 397.07 91.76 397.14
  Q 84.47 398.15 77.37 399.24
  Q 75.80 399.48 74.15 399.23
  C 72.58 399.00 70.28 398.23 68.80 398.85
  A 1.87 1.87 0.0 0 1 66.21 397.21
  Q 66.17 396.17 65.65 395.16
  Q 65.29 394.46 65.25 395.24
  L 65.07 399.79"
/>
<path stroke="#e86d84" vector-effect="non-scaling-stroke" d="
  M 408.29 346.14
  Q 408.17 366.87 407.93 387.25
  Q 407.90 389.82 408.53 392.26
  A 0.68 0.67 68.5 0 1 408.21 393.02
  Q 407.94 393.17 407.52 393.14"
/>
<path stroke="#2bc681" vector-effect="non-scaling-stroke" d="
  M 142.88 398.17
  L 142.27 373.54"
/>
<path stroke="#42d3bb" vector-effect="non-scaling-stroke" d="
  M 106.28 420.85
  Q 106.48 420.02 106.92 419.35
  Q 107.19 418.94 107.20 418.44
  L 107.69 390.89"
/>
</g>
<path fill="#e9e8ff" d="
  M 0.00 0.00
  L 151.13 0.00
  Q 148.70 0.53 147.11 0.36
  Q 145.53 0.18 144.64 0.95
  Q 144.08 1.43 143.42 1.77
  Q 142.69 2.16 141.90 1.95
  A 1.39 1.34 35.9 0 0 140.84 2.10
  Q 139.82 2.74 138.64 2.38
  Q 136.79 1.82 134.71 2.49
  Q 134.28 2.62 134.08 3.03
  L 132.71 5.91
  Q 132.66 6.03 132.53 6.09
  Q 132.33 6.20 132.15 6.13
  Q 131.87 6.02 131.62 6.18
  L 128.77 7.95
  Q 128.39 8.19 128.00 7.96
  Q 127.80 7.85 127.57 7.84
  A 0.76 0.76 0.0 0 0 126.79 8.51
  Q 126.61 9.92 124.98 9.58
  A 0.29 0.28 -84.2 0 0 124.64 9.86
  Q 124.63 10.03 124.65 10.20
  Q 124.73 10.92 124.02 10.80
  Q 122.50 10.54 121.42 11.51
  Q 120.91 11.97 120.22 11.98
  Q 118.96 11.98 119.09 13.20
  A 0.80 0.79 80.1 0 1 118.50 14.04
  Q 117.72 14.24 116.83 14.09
  A 0.36 0.35 -20.1 0 0 116.54 14.71
  Q 117.20 15.27 118.15 15.11
  Q 118.22 15.10 118.30 15.12
  Q 118.48 15.17 118.56 15.31
  Q 118.81 15.71 118.34 15.66
  Q 117.94 15.62 117.86 16.01
  Q 117.44 18.09 115.12 17.56
  A 0.36 0.36 0.0 0 0 114.68 17.87
  Q 114.62 18.31 114.86 18.31
  Q 115.31 18.30 114.97 18.60
  Q 114.34 19.16 113.69 18.46
  Q 113.55 18.31 113.44 18.47
  Q 113.33 18.62 113.18 18.65
  A 0.25 0.25 0.0 0 0 112.99 18.98
  Q 113.04 19.14 113.19 19.17
  Q 114.10 19.38 113.16 19.39
  Q 112.28 19.41 111.44 19.63
  Q 110.97 19.75 110.78 20.20
  Q 110.62 20.55 110.59 20.97
  Q 110.56 21.36 110.41 20.99
  L 110.14 20.32
  Q 109.91 19.74 109.36 20.03
  Q 108.79 20.32 108.37 20.88
  Q 108.07 21.29 108.53 21.51
  Q 108.83 21.65 108.48 22.00
  A 0.41 0.41 0.0 0 1 107.87 21.96
  Q 107.10 20.98 106.22 21.29
  Q 106.03 21.36 106.14 21.54
  L 106.40 21.94
  Q 106.73 22.45 106.17 22.67
  Q 105.78 22.82 105.39 22.83
  A 0.56 0.55 -81.8 0 1 104.85 22.10
  Q 104.95 21.78 104.76 21.52
  Q 104.72 21.47 104.67 21.43
  Q 104.55 21.36 104.42 21.38
  A 0.28 0.28 0.0 0 0 104.20 21.61
  L 103.99 23.26
  Q 103.91 23.88 103.28 23.86
  Q 102.66 23.85 102.02 24.01
  Q 100.21 24.47 101.98 25.03
  Q 102.25 25.12 102.53 25.18
  Q 103.84 25.46 102.50 25.57
  Q 101.25 25.67 100.05 25.88
  Q 98.39 26.17 99.47 27.44
  Q 99.65 27.65 99.59 27.92
  Q 99.49 28.35 99.06 28.42
  Q 98.20 28.57 97.56 29.23
  Q 97.34 29.46 97.29 29.15
  Q 97.25 28.91 97.00 28.86
  Q 94.48 28.39 92.98 30.38
  Q 92.90 30.49 92.94 30.62
  Q 92.99 30.76 93.09 30.87
  Q 93.74 31.51 92.83 31.43
  Q 91.76 31.34 90.65 31.37
  Q 90.02 31.39 90.42 31.87
  Q 90.92 32.49 90.70 33.29
  Q 90.51 33.98 90.25 33.31
  Q 90.04 32.77 89.39 32.93
  A 0.68 0.68 0.0 0 0 88.88 33.59
  L 88.88 33.96
  Q 88.88 34.71 88.12 34.74
  Q 87.39 34.77 87.03 35.34
  Q 86.76 35.76 86.29 35.90
  Q 85.07 36.27 84.33 37.32
  Q 84.04 37.75 84.37 38.14
  Q 84.86 38.70 84.57 39.44
  Q 84.46 39.71 84.32 39.45
  Q 83.92 38.72 83.03 38.77
  Q 82.53 38.80 82.22 39.19
  Q 80.80 41.01 78.65 41.09
  Q 78.21 41.11 78.19 41.55
  Q 78.18 41.70 78.28 41.80
  Q 78.74 42.27 79.40 42.11
  Q 79.70 42.04 79.96 41.91
  Q 80.73 41.53 80.63 42.38
  Q 80.52 43.30 80.79 44.29
  Q 80.82 44.39 80.72 44.38
  Q 80.67 44.37 80.62 44.38
  Q 80.28 44.42 80.36 44.09
  Q 80.57 43.34 79.80 42.90
  A 0.80 0.80 0.0 0 0 78.60 43.56
  Q 78.58 44.06 78.68 44.58
  Q 78.72 44.82 78.48 44.81
  L 78.48 44.81
  Q 78.40 44.81 78.40 44.73
  Q 78.36 44.02 78.37 43.37
  A 0.49 0.49 0.0 0 0 77.86 42.86
  Q 77.20 42.88 76.81 43.43
  Q 76.58 43.75 76.63 44.14
  Q 76.70 44.74 76.10 44.87
  Q 75.33 45.04 74.87 44.40
  Q 74.42 43.75 74.18 44.51
  L 73.81 45.67
  Q 73.70 46.02 73.33 45.92
  Q 73.19 45.88 73.07 45.79
  Q 72.73 45.55 72.85 45.15
  Q 72.97 44.74 72.78 44.39
  Q 72.46 43.81 72.21 44.43
  Q 71.84 45.33 70.89 45.09
  A 0.59 0.58 -72.9 0 0 70.20 45.46
  Q 69.99 46.01 70.21 46.58
  Q 70.41 47.09 70.80 46.72
  Q 71.03 46.49 71.13 46.18
  Q 71.30 45.64 71.74 46.00
  Q 71.90 46.12 71.93 46.32
  Q 72.03 46.82 71.54 46.97
  Q 70.62 47.23 70.88 48.16
  Q 70.95 48.42 70.72 48.57
  Q 70.47 48.73 70.18 48.60
  Q 69.68 48.37 69.85 47.86
  Q 69.96 47.54 69.78 47.29
  Q 69.73 47.21 69.65 47.17
  Q 69.47 47.06 69.28 47.23
  A 0.30 0.29 -21.9 0 0 69.18 47.45
  Q 69.13 49.71 68.63 52.12
  Q 68.53 52.59 68.20 52.24
  Q 67.44 51.41 66.79 52.37
  Q 66.33 53.04 65.99 52.31
  Q 65.89 52.10 65.51 52.22
  Q 64.97 52.39 64.93 52.96
  L 64.86 54.00
  Q 64.81 54.63 64.19 54.72
  Q 63.21 54.85 62.07 55.00
  Q 59.31 55.36 61.94 56.13
  Q 62.25 56.22 62.91 56.27
  Q 64.30 56.38 62.92 56.62
  Q 62.67 56.66 62.40 56.61
  Q 61.98 56.52 61.61 56.73
  Q 61.22 56.96 60.76 56.86
  A 0.62 0.61 -83.6 0 0 60.01 57.46
  Q 60.01 57.85 59.68 57.87
  Q 59.15 57.90 58.95 58.39
  Q 58.83 58.68 58.87 58.97
  Q 58.94 59.44 58.62 59.78
  L 57.03 61.43
  Q 56.56 61.92 57.23 62.05
  Q 57.50 62.10 57.61 62.32
  Q 57.82 62.76 57.33 62.80
  L 53.85 63.07
  A 0.74 0.73 89.6 0 0 53.18 63.76
  Q 53.10 64.98 51.89 65.20
  Q 50.79 65.41 51.84 65.79
  Q 52.79 66.14 52.68 67.25
  Q 52.62 67.90 52.16 67.44
  Q 51.45 66.72 50.94 67.63
  Q 50.66 68.12 50.09 68.14
  Q 48.91 68.19 49.13 69.41
  A 1.63 1.63 0.0 0 1 48.96 70.47
  Q 48.59 71.14 47.80 71.21
  Q 47.02 71.28 47.61 71.80
  Q 47.77 71.94 47.99 71.90
  Q 48.20 71.86 47.99 71.83
  Q 47.42 71.75 47.10 72.19
  Q 46.73 72.71 46.87 73.40
  Q 46.98 73.98 46.84 74.51
  Q 46.64 75.29 46.23 74.59
  Q 46.17 74.49 46.11 74.37
  Q 45.76 73.69 45.26 74.26
  Q 44.70 74.88 43.95 75.09
  Q 42.85 75.40 43.86 75.93
  Q 44.49 76.27 45.15 76.09
  Q 45.48 76.00 45.13 76.01
  Q 44.72 76.04 44.39 76.27
  Q 44.15 76.43 44.06 76.72
  Q 43.27 79.33 41.02 79.18
  Q 40.55 79.15 40.74 79.58
  Q 41.12 80.48 40.40 81.26
  Q 39.84 81.88 40.09 81.08
  Q 40.15 80.92 40.14 80.74
  Q 40.14 80.07 39.48 80.17
  Q 39.05 80.24 38.96 80.64
  Q 38.78 81.51 38.92 82.46
  Q 39.01 83.05 38.43 82.91
  Q 37.64 82.72 37.11 83.38
  Q 36.81 83.76 37.25 83.95
  Q 37.82 84.20 37.88 84.84
  Q 37.99 85.91 36.92 85.75
  Q 36.30 85.66 35.91 86.20
  Q 35.69 86.51 35.84 86.85
  A 0.68 0.67 56.0 0 1 35.70 87.59
  Q 35.28 88.03 34.66 87.90
  A 0.58 0.58 0.0 0 0 34.00 88.68
  Q 34.23 89.29 34.48 89.36
  Q 34.67 89.41 34.56 89.58
  L 33.79 90.80
  Q 33.68 90.97 33.49 90.91
  Q 33.19 90.83 32.99 90.60
  Q 32.35 89.85 32.17 90.82
  L 31.51 94.36
  Q 31.47 94.58 31.25 94.62
  Q 30.25 94.83 30.67 95.91
  A 0.53 0.53 0.0 0 1 30.20 96.63
  Q 28.72 96.68 27.52 97.15
  A 0.82 0.82 0.0 0 0 27.00 97.97
  Q 27.09 99.34 26.13 100.16
  A 0.63 0.63 0.0 0 0 26.62 101.27
  Q 27.53 101.16 27.67 101.96
  Q 27.79 102.68 27.29 102.15
  Q 26.76 101.60 25.90 101.26
  Q 25.37 101.05 25.15 101.58
  Q 25.01 101.90 24.99 102.27
  Q 24.95 102.81 24.45 103.02
  Q 23.69 103.33 23.73 104.22
  Q 23.75 104.53 23.45 104.62
  Q 21.67 105.13 21.65 107.13
  Q 21.65 108.09 20.97 107.40
  Q 20.88 107.30 20.74 107.30
  Q 20.09 107.31 20.11 107.95
  Q 20.16 109.24 19.24 110.08
  Q 18.98 110.31 18.91 110.65
  L 18.57 112.27
  Q 18.45 112.82 18.09 112.38
  Q 17.94 112.20 17.89 111.97
  Q 17.65 110.91 17.36 111.96
  Q 17.10 112.90 16.41 113.66
  Q 16.07 114.04 16.17 114.54
  Q 16.22 114.77 16.40 114.94
  Q 17.12 115.65 16.11 115.63
  Q 15.41 115.62 15.17 116.35
  A 0.43 0.42 30.9 0 0 15.28 116.77
  L 15.48 116.97
  Q 15.90 117.39 15.46 117.80
  Q 14.58 118.62 14.67 119.91
  Q 14.71 120.44 14.24 120.68
  Q 13.70 120.95 13.34 121.43
  Q 13.12 121.72 13.11 122.09
  Q 13.05 124.37 11.34 125.62
  Q 11.16 125.75 11.11 125.97
  Q 11.09 126.05 11.15 126.10
  Q 11.69 126.55 11.01 126.72
  Q 10.20 126.92 10.14 127.76
  Q 10.04 128.92 9.50 129.99
  Q 9.25 130.49 8.89 130.92
  Q 8.47 131.43 8.62 132.12
  Q 8.70 132.44 8.41 132.61
  Q 6.51 133.76 6.61 136.18
  Q 6.62 136.63 6.28 136.93
  L 5.32 137.76
  Q 4.86 138.16 4.90 138.77
  Q 4.94 139.52 4.33 139.96
  Q 3.69 140.41 3.87 141.17
  Q 4.15 142.36 3.29 143.17
  A 1.23 1.21 69.8 0 0 2.91 144.01
  Q 2.76 149.08 0.60 152.99
  Q 0.35 153.46 0.40 153.99
  Q 0.60 156.10 0.00 157.89
  L 0.00 0.00
  Z"
/>
<path fill="#edeefc" d="
  M 151.13 0.00
  L 258.09 0.00
  Q 188.97 5.03 133.17 40.93
  Q 87.90 70.06 56.99 113.01
  Q 23.80 159.13 11.63 217.17
  Q 6.65 240.91 6.21 264.21
  Q 5.84 283.39 7.13 298.94
  Q 10.27 336.66 22.94 372.55
  Q 26.05 381.38 30.63 391.13
  Q 41.21 413.69 54.01 432.88
  Q 54.88 434.18 55.92 435.26
  Q 56.30 435.64 56.80 435.46
  L 71.14 430.34
  L 106.28 420.85
  Q 106.31 420.51 107.09 420.74
  Q 105.51 421.43 104.35 422.50
  Q 103.96 422.85 103.47 422.64
  Q 102.99 422.43 102.71 422.89
  Q 102.41 423.41 101.87 423.14
  Q 101.52 422.97 101.16 423.15
  Q 101.00 423.23 101.14 423.34
  Q 101.25 423.42 101.39 423.41
  Q 102.08 423.36 101.52 423.76
  Q 100.87 424.23 100.08 424.36
  Q 99.54 424.44 99.82 423.98
  Q 99.94 423.78 99.60 423.51
  Q 99.19 423.19 98.80 423.53
  Q 98.63 423.68 98.61 423.94
  Q 98.57 424.27 98.25 424.20
  L 97.76 424.09
  Q 96.96 423.92 97.63 424.38
  Q 98.40 424.92 99.27 425.09
  Q 99.78 425.19 100.12 425.58
  Q 101.46 427.05 101.95 428.78
  Q 102.06 429.19 101.86 429.56
  L 101.48 430.25
  Q 101.16 430.85 101.84 430.91
  Q 103.31 431.02 103.38 432.62
  Q 103.39 432.93 103.70 432.96
  Q 103.96 432.99 104.10 433.20
  Q 105.27 434.97 107.11 436.16
  Q 107.26 436.26 107.21 436.44
  Q 107.20 436.48 107.18 436.53
  Q 106.92 437.01 107.45 436.90
  Q 107.81 436.83 108.19 436.92
  Q 108.45 436.98 108.28 436.77
  Q 108.24 436.72 108.24 436.66
  Q 108.22 436.43 108.47 436.55
  Q 109.30 436.93 110.22 437.12
  L 66.15 447.73
  A 0.70 0.70 0.0 0 0 65.82 448.91
  Q 73.90 457.04 81.01 465.26
  Q 81.90 466.28 83.04 466.97
  Q 83.47 467.23 83.96 467.09
  C 113.42 458.72 142.18 454.18 173.21 450.71
  Q 213.20 446.24 252.25 444.85
  C 284.68 443.69 319.82 445.22 355.17 448.47
  C 394.73 452.09 429.50 457.00 465.69 467.55
  A 1.24 1.22 28.3 0 0 466.96 467.18
  Q 474.97 457.88 484.05 449.53
  A 0.38 0.37 32.7 0 0 483.91 448.90
  L 466.94 443.59
  L 468.46 443.14
  Q 469.00 442.99 469.43 443.36
  Q 469.94 443.81 470.57 443.92
  Q 471.06 444.01 470.74 443.63
  Q 470.45 443.29 470.78 442.99
  Q 470.99 442.80 470.72 442.87
  Q 470.42 442.95 470.18 442.74
  Q 469.82 442.45 470.27 442.33
  Q 471.43 442.03 472.60 442.03
  Q 472.86 442.03 472.89 441.77
  Q 472.90 441.57 472.72 441.60
  Q 472.44 441.65 472.49 441.37
  Q 472.55 441.03 472.87 440.97
  Q 473.38 440.88 473.02 440.51
  L 472.75 440.25
  Q 472.52 440.02 472.65 439.72
  Q 472.74 439.49 472.91 439.32
  A 0.85 0.85 0.0 0 1 473.77 439.12
  L 474.60 439.38
  Q 475.15 439.55 475.59 439.17
  Q 476.31 438.55 477.28 438.46
  Q 477.87 438.41 477.88 437.81
  L 477.88 437.03
  Q 477.88 436.50 478.38 436.31
  Q 480.48 435.51 480.87 433.65
  Q 480.98 433.10 481.53 433.16
  L 482.87 433.30
  Q 483.23 433.33 483.58 433.21
  Q 484.13 433.01 484.00 432.80
  Q 483.44 431.89 484.38 432.40
  Q 486.22 433.38 487.16 432.60
  L 493.76 435.07
  A 0.90 0.89 -63.9 0 0 494.85 434.69
  Q 506.29 415.71 515.88 395.44
  Q 537.00 350.79 542.00 301.54
  L 542.00 569.00
  L 278.76 569.00
  Q 321.76 550.66 365.33 533.40
  Q 391.93 522.87 418.86 510.90
  A 0.67 0.67 0.0 0 0 418.83 509.66
  Q 418.11 509.38 417.35 509.29
  Q 401.76 507.49 385.75 508.69
  Q 339.60 512.15 293.91 519.96
  Q 287.77 521.01 281.39 522.08
  Q 278.41 522.58 275.31 522.01
  Q 217.74 511.30 157.36 508.54
  Q 144.43 507.95 131.03 509.35
  Q 130.31 509.43 130.19 510.08
  A 0.83 0.81 17.7 0 0 130.67 510.98
  C 150.75 519.81 171.20 528.65 191.88 536.54
  Q 232.15 551.91 271.80 569.00
  L 252.01 569.00
  Q 251.76 568.58 250.52 567.75
  Q 249.54 567.10 249.91 565.89
  Q 250.07 565.36 249.51 565.36
  L 245.97 565.41
  Q 245.46 565.41 245.05 565.09
  Q 244.22 564.43 243.53 563.79
  Q 242.54 562.88 241.25 563.22
  Q 240.74 563.35 240.36 562.98
  Q 239.74 562.37 239.81 561.50
  Q 239.88 560.60 239.07 560.28
  Q 238.87 560.20 238.97 560.00
  Q 239.32 559.37 238.60 559.37
  Q 237.50 559.37 236.37 559.46
  Q 236.22 559.47 236.16 559.34
  Q 236.10 559.23 236.19 559.08
  Q 236.22 559.04 236.13 559.01
  L 232.66 557.50
  Q 232.22 557.31 231.75 557.37
  L 229.74 557.65
  Q 229.25 557.72 228.96 557.32
  Q 228.78 557.08 228.87 556.81
  Q 229.03 556.30 228.52 556.14
  Q 227.31 555.78 226.71 556.63
  Q 226.43 557.02 225.96 556.96
  Q 225.04 556.83 224.38 556.38
  Q 223.72 555.91 222.97 556.25
  Q 221.77 556.79 220.36 556.94
  A 1.25 1.25 0.0 0 1 218.99 555.87
  Q 218.87 554.98 219.36 554.36
  Q 219.83 553.77 219.09 553.58
  Q 218.84 553.52 219.00 553.35
  Q 219.61 552.73 219.02 552.08
  Q 217.62 550.53 215.68 551.39
  Q 215.14 551.63 214.81 551.14
  C 213.98 549.86 212.49 550.35 211.62 549.08
  A 0.45 0.45 0.0 0 0 210.87 549.09
  Q 210.56 549.60 210.16 549.16
  Q 209.80 548.76 209.27 548.89
  Q 208.02 549.21 206.72 549.34
  Q 205.56 549.45 205.01 548.46
  Q 204.78 548.06 204.32 547.93
  Q 201.62 547.20 199.58 548.00
  Q 198.96 548.24 198.30 548.02
  Q 197.53 547.77 197.39 546.99
  Q 197.29 546.46 197.65 546.06
  Q 198.00 545.68 197.60 545.33
  Q 197.32 545.09 197.36 544.72
  L 197.45 543.76
  Q 197.50 543.24 197.13 543.61
  L 196.90 543.85
  Q 196.51 544.23 196.06 543.94
  Q 195.65 543.67 195.39 543.29
  Q 195.07 542.83 194.52 542.93
  Q 191.40 543.55 189.41 541.17
  C 188.20 539.73 186.14 539.41 184.55 540.25
  Q 183.91 540.58 183.29 540.21
  Q 182.32 539.64 181.38 540.16
  A 1.52 1.52 0.0 0 1 179.13 538.83
  L 179.13 537.08
  Q 179.13 536.79 178.90 536.61
  Q 177.31 535.36 175.69 535.68
  Q 175.21 535.77 174.83 535.47
  Q 173.32 534.28 171.51 533.24
  Q 171.28 533.10 171.00 533.10
  Q 170.72 533.09 170.46 533.18
  Q 170.01 533.34 169.58 533.14
  Q 167.28 532.09 164.88 532.15
  A 0.94 0.92 68.8 0 1 164.15 531.82
  Q 163.98 531.62 163.86 531.38
  Q 163.60 530.87 163.04 530.74
  L 159.88 529.98
  Q 159.38 529.86 159.02 530.21
  Q 157.15 531.98 154.53 532.37
  A 1.12 1.08 8.3 0 1 153.34 530.83
  Q 153.48 530.54 153.28 530.30
  Q 152.80 529.70 153.41 529.23
  Q 154.17 528.66 154.43 527.72
  Q 154.58 527.18 154.29 526.71
  Q 153.17 524.88 151.26 525.08
  Q 150.74 525.14 150.36 524.78
  Q 149.51 523.95 148.47 524.45
  Q 148.33 524.53 148.25 524.38
  Q 147.62 523.26 146.27 523.14
  Q 145.00 523.03 143.72 523.04
  C 142.74 523.06 141.98 522.52 141.62 521.63
  Q 141.39 521.04 140.80 520.83
  Q 136.20 519.12 131.63 515.86
  A 3.36 3.33 55.0 0 0 128.82 515.35
  Q 124.96 516.38 122.77 513.29
  Q 122.45 512.84 121.91 512.72
  L 119.73 512.25
  Q 119.26 512.15 119.30 511.67
  Q 119.36 511.00 118.70 510.74
  Q 118.25 510.55 117.99 510.14
  Q 117.21 508.91 116.74 507.55
  C 116.18 505.92 114.59 504.84 113.08 504.22
  Q 110.61 503.21 108.55 501.34
  Q 107.53 500.42 106.23 500.74
  Q 104.83 501.09 104.01 500.00
  Q 103.68 499.56 103.97 499.08
  Q 104.29 498.54 104.05 497.95
  Q 103.83 497.44 103.27 497.41
  Q 101.98 497.36 100.95 498.11
  Q 100.56 498.40 100.06 498.45
  Q 99.68 498.49 99.41 498.26
  Q 99.01 497.92 99.26 497.47
  Q 99.84 496.37 99.62 495.07
  A 0.90 0.90 0.0 0 0 98.28 494.44
  C 96.22 495.63 95.48 493.58 93.44 494.19
  Q 92.83 494.37 92.87 495.00
  Q 92.92 496.01 91.88 496.27
  Q 91.38 496.39 91.03 496.01
  Q 90.09 494.99 88.82 495.29
  A 0.47 0.47 0.0 0 1 88.29 495.05
  Q 87.98 494.47 88.15 493.83
  A 0.32 0.31 -69.7 0 0 88.00 493.49
  Q 86.29 492.55 86.99 490.30
  Q 87.51 488.63 85.80 488.25
  Q 85.02 488.08 84.91 487.28
  Q 84.84 486.80 84.44 486.53
  Q 82.47 485.20 80.29 484.89
  Q 79.87 484.83 79.81 484.40
  Q 79.46 481.95 77.19 481.84
  Q 76.73 481.81 76.42 481.46
  Q 76.27 481.30 76.22 481.10
  Q 76.13 480.76 75.88 480.51
  L 74.08 478.77
  Q 73.78 478.48 74.08 478.18
  L 74.38 477.88
  Q 74.77 477.49 74.47 477.03
  Q 73.58 475.69 73.71 473.82
  Q 73.74 473.43 73.36 473.34
  Q 71.92 473.00 71.12 471.53
  Q 70.93 471.18 71.27 470.99
  Q 71.42 470.90 71.51 470.75
  Q 71.71 470.41 71.47 470.08
  L 70.37 468.62
  A 0.75 0.74 60.0 0 0 69.49 468.38
  L 67.75 469.11
  Q 67.16 469.35 66.79 468.84
  Q 65.99 467.76 65.92 466.41
  Q 65.92 466.37 65.88 466.37
  L 65.51 466.37
  Q 65.20 466.36 65.04 466.10
  Q 64.81 465.74 64.34 465.84
  Q 63.77 465.96 63.31 465.61
  Q 61.55 464.26 61.73 461.92
  Q 61.78 461.34 61.21 461.32
  Q 60.61 461.31 60.16 461.66
  Q 59.73 462.00 59.18 461.90
  Q 57.84 461.67 57.94 460.01
  Q 57.97 459.56 57.65 459.25
  Q 55.74 457.41 55.56 454.94
  Q 55.52 454.36 54.93 454.33
  Q 54.33 454.30 53.98 453.84
  Q 53.72 453.49 53.30 453.42
  L 51.03 453.02
  A 1.45 1.42 -15.0 0 1 50.20 452.55
  Q 49.66 451.90 48.78 451.89
  Q 48.22 451.87 48.18 451.31
  Q 48.03 448.67 45.48 447.98
  Q 45.00 447.85 44.78 447.40
  L 44.07 445.90
  Q 43.83 445.40 43.27 445.32
  C 42.64 445.24 42.17 444.88 41.84 444.34
  Q 40.53 442.22 39.80 439.99
  Q 39.65 439.52 40.01 439.18
  Q 41.00 438.22 40.62 436.64
  Q 40.48 436.07 40.19 436.58
  Q 39.85 437.21 39.17 436.73
  A 0.73 0.73 0.0 0 1 38.87 436.05
  Q 38.95 435.31 38.68 434.62
  Q 38.46 434.03 38.07 434.51
  Q 37.69 434.97 37.24 434.64
  Q 36.74 434.28 36.34 434.76
  Q 36.15 434.99 35.96 435.23
  Q 35.62 435.67 35.11 435.43
  Q 33.85 434.82 33.32 433.80
  Q 32.49 432.20 34.22 431.78
  Q 34.99 431.59 34.47 430.99
  Q 33.96 430.40 33.90 429.61
  Q 33.87 429.23 33.49 429.15
  L 32.04 428.82
  Q 31.35 428.67 31.60 428.00
  Q 31.88 427.26 31.24 426.88
  Q 30.81 426.62 30.82 426.12
  Q 30.90 423.12 29.87 420.75
  Q 29.67 420.30 29.25 420.55
  Q 27.86 421.36 27.82 422.67
  Q 27.81 422.96 27.52 422.93
  L 27.26 422.91
  A 0.23 0.22 -82.0 0 1 27.06 422.64
  Q 27.72 419.40 25.44 417.70
  Q 25.23 417.54 25.16 417.29
  Q 25.14 417.24 25.15 417.18
  Q 25.24 416.70 24.78 416.54
  Q 24.01 416.26 23.92 414.99
  Q 23.76 412.88 23.59 410.81
  A 0.05 0.05 0.0 0 0 23.51 410.78
  Q 23.21 411.06 23.05 410.71
  Q 22.96 410.51 22.94 410.29
  Q 22.71 407.75 21.74 405.39
  Q 21.55 404.94 21.10 405.14
  Q 20.94 405.22 20.89 405.38
  Q 20.57 406.38 20.15 405.42
  Q 19.69 404.36 18.76 403.68
  Q 18.29 403.33 18.30 402.75
  Q 18.31 402.04 17.78 401.64
  A 2.78 2.07 79.9 0 1 17.44 401.32
  Q 17.32 401.18 17.43 401.09
  Q 17.92 400.70 17.62 400.15
  Q 17.23 399.43 16.93 398.67
  Q 16.87 398.52 16.86 398.35
  Q 16.85 398.17 17.00 398.07
  Q 17.38 397.82 17.37 397.36
  Q 17.36 396.67 16.84 396.61
  A 0.56 0.55 -15.3 0 1 16.43 396.38
  Q 16.26 396.15 16.25 395.90
  Q 16.24 395.28 15.62 395.36
  Q 14.81 395.47 14.64 394.62
  A 1.39 1.38 -78.5 0 0 14.06 393.74
  Q 12.31 392.52 12.42 390.06
  Q 12.44 389.56 11.96 389.42
  Q 11.33 389.23 10.90 389.77
  A 0.40 0.39 -39.6 0 1 10.24 389.71
  Q 9.75 388.74 10.07 387.83
  A 0.94 0.90 -56.3 0 0 9.91 386.94
  Q 9.05 385.91 8.71 384.62
  Q 8.62 384.27 8.36 384.01
  Q 7.41 383.08 8.13 381.84
  A 1.14 1.11 45.2 0 0 8.12 380.73
  Q 7.85 380.27 7.92 379.71
  A 2.45 2.26 -80.5 0 0 6.20 377.07
  Q 5.03 376.81 4.29 375.70
  Q 4.12 375.44 4.29 375.19
  Q 4.48 374.92 4.79 374.78
  Q 5.55 374.42 4.72 374.32
  Q 4.45 374.30 4.31 374.07
  Q 4.06 373.65 4.06 374.14
  Q 4.06 374.33 3.84 374.39
  Q 3.37 374.53 3.18 374.08
  L 1.89 371.15
  A 1.12 1.11 55.6 0 1 2.12 369.91
  Q 2.64 369.39 2.10 368.91
  A 1.38 1.34 19.5 0 1 1.65 368.00
  Q 1.39 365.02 0.88 361.83
  Q 0.39 358.82 0.29 355.64
  Q 0.17 351.94 0.00 348.24
  L 0.00 157.89
  Q 0.60 156.10 0.40 153.99
  Q 0.35 153.46 0.60 152.99
  Q 2.76 149.08 2.91 144.01
  A 1.23 1.21 69.8 0 1 3.29 143.17
  Q 4.15 142.36 3.87 141.17
  Q 3.69 140.41 4.33 139.96
  Q 4.94 139.52 4.90 138.77
  Q 4.86 138.16 5.32 137.76
  L 6.28 136.93
  Q 6.62 136.63 6.61 136.18
  Q 6.51 133.76 8.41 132.61
  Q 8.70 132.44 8.62 132.12
  Q 8.47 131.43 8.89 130.92
  Q 9.25 130.49 9.50 129.99
  Q 10.04 128.92 10.14 127.76
  Q 10.20 126.92 11.01 126.72
  Q 11.69 126.55 11.15 126.10
  Q 11.09 126.05 11.11 125.97
  Q 11.16 125.75 11.34 125.62
  Q 13.05 124.37 13.11 122.09
  Q 13.12 121.72 13.34 121.43
  Q 13.70 120.95 14.24 120.68
  Q 14.71 120.44 14.67 119.91
  Q 14.58 118.62 15.46 117.80
  Q 15.90 117.39 15.48 116.97
  L 15.28 116.77
  A 0.43 0.42 30.9 0 1 15.17 116.35
  Q 15.41 115.62 16.11 115.63
  Q 17.12 115.65 16.40 114.94
  Q 16.22 114.77 16.17 114.54
  Q 16.07 114.04 16.41 113.66
  Q 17.10 112.90 17.36 111.96
  Q 17.65 110.91 17.89 111.97
  Q 17.94 112.20 18.09 112.38
  Q 18.45 112.82 18.57 112.27
  L 18.91 110.65
  Q 18.98 110.31 19.24 110.08
  Q 20.16 109.24 20.11 107.95
  Q 20.09 107.31 20.74 107.30
  Q 20.88 107.30 20.97 107.40
  Q 21.65 108.09 21.65 107.13
  Q 21.67 105.13 23.45 104.62
  Q 23.75 104.53 23.73 104.22
  Q 23.69 103.33 24.45 103.02
  Q 24.95 102.81 24.99 102.27
  Q 25.01 101.90 25.15 101.58
  Q 25.37 101.05 25.90 101.26
  Q 26.76 101.60 27.29 102.15
  Q 27.79 102.68 27.67 101.96
  Q 27.53 101.16 26.62 101.27
  A 0.63 0.63 0.0 0 1 26.13 100.16
  Q 27.09 99.34 27.00 97.97
  A 0.82 0.82 0.0 0 1 27.52 97.15
  Q 28.72 96.68 30.20 96.63
  A 0.53 0.53 0.0 0 0 30.67 95.91
  Q 30.25 94.83 31.25 94.62
  Q 31.47 94.58 31.51 94.36
  L 32.17 90.82
  Q 32.35 89.85 32.99 90.60
  Q 33.19 90.83 33.49 90.91
  Q 33.68 90.97 33.79 90.80
  L 34.56 89.58
  Q 34.67 89.41 34.48 89.36
  Q 34.23 89.29 34.00 88.68
  A 0.58 0.58 0.0 0 1 34.66 87.90
  Q 35.28 88.03 35.70 87.59
  A 0.68 0.67 56.0 0 0 35.84 86.85
  Q 35.69 86.51 35.91 86.20
  Q 36.30 85.66 36.92 85.75
  Q 37.99 85.91 37.88 84.84
  Q 37.82 84.20 37.25 83.95
  Q 36.81 83.76 37.11 83.38
  Q 37.64 82.72 38.43 82.91
  Q 39.01 83.05 38.92 82.46
  Q 38.78 81.51 38.96 80.64
  Q 39.05 80.24 39.48 80.17
  Q 40.14 80.07 40.14 80.74
  Q 40.15 80.92 40.09 81.08
  Q 39.84 81.88 40.40 81.26
  Q 41.12 80.48 40.74 79.58
  Q 40.55 79.15 41.02 79.18
  Q 43.27 79.33 44.06 76.72
  Q 44.15 76.43 44.39 76.27
  Q 44.72 76.04 45.13 76.01
  Q 45.48 76.00 45.15 76.09
  Q 44.49 76.27 43.86 75.93
  Q 42.85 75.40 43.95 75.09
  Q 44.70 74.88 45.26 74.26
  Q 45.76 73.69 46.11 74.37
  Q 46.17 74.49 46.23 74.59
  Q 46.64 75.29 46.84 74.51
  Q 46.98 73.98 46.87 73.40
  Q 46.73 72.71 47.10 72.19
  Q 47.42 71.75 47.99 71.83
  Q 48.20 71.86 47.99 71.90
  Q 47.77 71.94 47.61 71.80
  Q 47.02 71.28 47.80 71.21
  Q 48.59 71.14 48.96 70.47
  A 1.63 1.63 0.0 0 0 49.13 69.41
  Q 48.91 68.19 50.09 68.14
  Q 50.66 68.12 50.94 67.63
  Q 51.45 66.72 52.16 67.44
  Q 52.62 67.90 52.68 67.25
  Q 52.79 66.14 51.84 65.79
  Q 50.79 65.41 51.89 65.20
  Q 53.10 64.98 53.18 63.76
  A 0.74 0.73 89.6 0 1 53.85 63.07
  L 57.33 62.80
  Q 57.82 62.76 57.61 62.32
  Q 57.50 62.10 57.23 62.05
  Q 56.56 61.92 57.03 61.43
  L 58.62 59.78
  Q 58.94 59.44 58.87 58.97
  Q 58.83 58.68 58.95 58.39
  Q 59.15 57.90 59.68 57.87
  Q 60.01 57.85 60.01 57.46
  A 0.62 0.61 -83.6 0 1 60.76 56.86
  Q 61.22 56.96 61.61 56.73
  Q 61.98 56.52 62.40 56.61
  Q 62.67 56.66 62.92 56.62
  Q 64.30 56.38 62.91 56.27
  Q 62.25 56.22 61.94 56.13
  Q 59.31 55.36 62.07 55.00
  Q 63.21 54.85 64.19 54.72
  Q 64.81 54.63 64.86 54.00
  L 64.93 52.96
  Q 64.97 52.39 65.51 52.22
  Q 65.89 52.10 65.99 52.31
  Q 66.33 53.04 66.79 52.37
  Q 67.44 51.41 68.20 52.24
  Q 68.53 52.59 68.63 52.12
  Q 69.13 49.71 69.18 47.45
  A 0.30 0.29 -21.9 0 1 69.28 47.23
  Q 69.47 47.06 69.65 47.17
  Q 69.73 47.21 69.78 47.29
  Q 69.96 47.54 69.85 47.86
  Q 69.68 48.37 70.18 48.60
  Q 70.47 48.73 70.72 48.57
  Q 70.95 48.42 70.88 48.16
  Q 70.62 47.23 71.54 46.97
  Q 72.03 46.82 71.93 46.32
  Q 71.90 46.12 71.74 46.00
  Q 71.30 45.64 71.13 46.18
  Q 71.03 46.49 70.80 46.72
  Q 70.41 47.09 70.21 46.58
  Q 69.99 46.01 70.20 45.46
  A 0.59 0.58 -72.9 0 1 70.89 45.09
  Q 71.84 45.33 72.21 44.43
  Q 72.46 43.81 72.78 44.39
  Q 72.97 44.74 72.85 45.15
  Q 72.73 45.55 73.07 45.79
  Q 73.19 45.88 73.33 45.92
  Q 73.70 46.02 73.81 45.67
  L 74.18 44.51
  Q 74.42 43.75 74.87 44.40
  Q 75.33 45.04 76.10 44.87
  Q 76.70 44.74 76.63 44.14
  Q 76.58 43.75 76.81 43.43
  Q 77.20 42.88 77.86 42.86
  A 0.49 0.49 0.0 0 1 78.37 43.37
  Q 78.36 44.02 78.40 44.73
  Q 78.40 44.81 78.48 44.81
  L 78.48 44.81
  Q 78.72 44.82 78.68 44.58
  Q 78.58 44.06 78.60 43.56
  A 0.80 0.80 0.0 0 1 79.80 42.90
  Q 80.57 43.34 80.36 44.09
  Q 80.28 44.42 80.62 44.38
  Q 80.67 44.37 80.72 44.38
  Q 80.82 44.39 80.79 44.29
  Q 80.52 43.30 80.63 42.38
  Q 80.73 41.53 79.96 41.91
  Q 79.70 42.04 79.40 42.11
  Q 78.74 42.27 78.28 41.80
  Q 78.18 41.70 78.19 41.55
  Q 78.21 41.11 78.65 41.09
  Q 80.80 41.01 82.22 39.19
  Q 82.53 38.80 83.03 38.77
  Q 83.92 38.72 84.32 39.45
  Q 84.46 39.71 84.57 39.44
  Q 84.86 38.70 84.37 38.14
  Q 84.04 37.75 84.33 37.32
  Q 85.07 36.27 86.29 35.90
  Q 86.76 35.76 87.03 35.34
  Q 87.39 34.77 88.12 34.74
  Q 88.88 34.71 88.88 33.96
  L 88.88 33.59
  A 0.68 0.68 0.0 0 1 89.39 32.93
  Q 90.04 32.77 90.25 33.31
  Q 90.51 33.98 90.70 33.29
  Q 90.92 32.49 90.42 31.87
  Q 90.02 31.39 90.65 31.37
  Q 91.76 31.34 92.83 31.43
  Q 93.74 31.51 93.09 30.87
  Q 92.99 30.76 92.94 30.62
  Q 92.90 30.49 92.98 30.38
  Q 94.48 28.39 97.00 28.86
  Q 97.25 28.91 97.29 29.15
  Q 97.34 29.46 97.56 29.23
  Q 98.20 28.57 99.06 28.42
  Q 99.49 28.35 99.59 27.92
  Q 99.65 27.65 99.47 27.44
  Q 98.39 26.17 100.05 25.88
  Q 101.25 25.67 102.50 25.57
  Q 103.84 25.46 102.53 25.18
  Q 102.25 25.12 101.98 25.03
  Q 100.21 24.47 102.02 24.01
  Q 102.66 23.85 103.28 23.86
  Q 103.91 23.88 103.99 23.26
  L 104.20 21.61
  A 0.28 0.28 0.0 0 1 104.42 21.38
  Q 104.55 21.36 104.67 21.43
  Q 104.72 21.47 104.76 21.52
  Q 104.95 21.78 104.85 22.10
  A 0.56 0.55 -81.8 0 0 105.39 22.83
  Q 105.78 22.82 106.17 22.67
  Q 106.73 22.45 106.40 21.94
  L 106.14 21.54
  Q 106.03 21.36 106.22 21.29
  Q 107.10 20.98 107.87 21.96
  A 0.41 0.41 0.0 0 0 108.48 22.00
  Q 108.83 21.65 108.53 21.51
  Q 108.07 21.29 108.37 20.88
  Q 108.79 20.32 109.36 20.03
  Q 109.91 19.74 110.14 20.32
  L 110.41 20.99
  Q 110.56 21.36 110.59 20.97
  Q 110.62 20.55 110.78 20.20
  Q 110.97 19.75 111.44 19.63
  Q 112.28 19.41 113.16 19.39
  Q 114.10 19.38 113.19 19.17
  Q 113.04 19.14 112.99 18.98
  A 0.25 0.25 0.0 0 1 113.18 18.65
  Q 113.33 18.62 113.44 18.47
  Q 113.55 18.31 113.69 18.46
  Q 114.34 19.16 114.97 18.60
  Q 115.31 18.30 114.86 18.31
  Q 114.62 18.31 114.68 17.87
  A 0.36 0.36 0.0 0 1 115.12 17.56
  Q 117.44 18.09 117.86 16.01
  Q 117.94 15.62 118.34 15.66
  Q 118.81 15.71 118.56 15.31
  Q 118.48 15.17 118.30 15.12
  Q 118.22 15.10 118.15 15.11
  Q 117.20 15.27 116.54 14.71
  A 0.36 0.35 -20.1 0 1 116.83 14.09
  Q 117.72 14.24 118.50 14.04
  A 0.80 0.79 80.1 0 0 119.09 13.20
  Q 118.96 11.98 120.22 11.98
  Q 120.91 11.97 121.42 11.51
  Q 122.50 10.54 124.02 10.80
  Q 124.73 10.92 124.65 10.20
  Q 124.63 10.03 124.64 9.86
  A 0.29 0.28 -84.2 0 1 124.98 9.58
  Q 126.61 9.92 126.79 8.51
  A 0.76 0.76 0.0 0 1 127.57 7.84
  Q 127.80 7.85 128.00 7.96
  Q 128.39 8.19 128.77 7.95
  L 131.62 6.18
  Q 131.87 6.02 132.15 6.13
  Q 132.33 6.20 132.53 6.09
  Q 132.66 6.03 132.71 5.91
  L 134.08 3.03
  Q 134.28 2.62 134.71 2.49
  Q 136.79 1.82 138.64 2.38
  Q 139.82 2.74 140.84 2.10
  A 1.39 1.34 35.9 0 1 141.90 1.95
  Q 142.69 2.16 143.42 1.77
  Q 144.08 1.43 144.64 0.95
  Q 145.53 0.18 147.11 0.36
  Q 148.70 0.53 151.13 0.00
  Z
  M 450.63 485.89
  C 439.06 482.62 427.26 480.00 414.84 477.70
  Q 335.96 463.11 257.28 464.95
  Q 247.88 465.17 237.27 465.77
  Q 166.48 469.83 98.08 485.96
  A 0.50 0.50 0.0 0 0 97.89 486.84
  L 117.41 501.64
  A 2.28 2.26 56.6 0 0 119.31 502.04
  Q 128.97 499.67 139.16 498.02
  Q 236.89 482.14 337.74 489.42
  Q 374.57 492.07 407.28 497.47
  Q 418.84 499.38 430.32 502.02
  A 1.99 1.97 31.5 0 0 432.00 501.63
  L 450.75 486.44
  A 0.32 0.32 0.0 0 0 450.63 485.89
  Z"
/>
<path fill="#305b99" d="
  M 258.09 0.00
  L 292.61 0.00
  Q 324.88 2.15 353.76 10.78
  C 391.45 22.04 426.99 44.00 456.12 71.16
  Q 491.18 103.85 512.33 146.61
  Q 523.27 168.71 529.66 188.51
  Q 539.63 219.36 542.00 254.01
  L 542.00 301.54
  Q 537.00 350.79 515.88 395.44
  Q 506.29 415.71 494.85 434.69
  A 0.90 0.89 -63.9 0 1 493.76 435.07
  L 487.16 432.60
  L 478.91 429.66
  Q 483.91 423.48 487.27 416.25
  Q 489.77 413.05 491.63 409.65
  Q 497.99 398.05 503.49 386.03
  C 512.09 367.24 518.09 347.33 522.31 326.99
  Q 525.60 311.16 526.57 292.74
  C 528.25 260.60 525.48 229.03 516.84 199.37
  Q 492.98 117.55 424.94 65.26
  Q 387.77 36.69 343.35 24.61
  Q 301.87 13.33 258.48 15.97
  Q 248.76 16.57 238.86 18.13
  C 212.38 22.33 186.53 30.05 163.03 42.01
  C 133.57 57.01 108.61 75.84 86.72 100.88
  Q 76.56 112.51 69.04 122.99
  C 50.51 148.85 37.06 179.42 28.86 211.58
  Q 24.15 230.03 22.60 249.55
  Q 18.60 299.92 31.59 348.42
  Q 34.11 357.82 37.57 367.19
  Q 48.59 397.02 66.55 423.28
  Q 67.91 427.09 71.14 430.34
  L 56.80 435.46
  Q 56.30 435.64 55.92 435.26
  Q 54.88 434.18 54.01 432.88
  Q 41.21 413.69 30.63 391.13
  Q 26.05 381.38 22.94 372.55
  Q 10.27 336.66 7.13 298.94
  Q 5.84 283.39 6.21 264.21
  Q 6.65 240.91 11.63 217.17
  Q 23.80 159.13 56.99 113.01
  Q 87.90 70.06 133.17 40.93
  Q 188.97 5.03 258.09 0.00
  Z"
/>
<path fill="#edeefc" d="
  M 292.61 0.00
  L 542.00 0.00
  L 542.00 254.01
  Q 539.63 219.36 529.66 188.51
  Q 523.27 168.71 512.33 146.61
  Q 491.18 103.85 456.12 71.16
  C 426.99 44.00 391.45 22.04 353.76 10.78
  Q 324.88 2.15 292.61 0.00
  Z"
/>
<path fill="#eff1fd" d="
  M 487.27 416.25
  L 487.78 402.22
  L 488.19 326.05
  Q 488.19 325.33 487.52 325.08
  L 465.54 316.74
  Q 464.74 316.44 464.74 317.29
  L 464.73 319.71
  Q 464.48 319.54 464.36 319.22
  Q 464.13 318.59 463.57 318.98
  Q 463.29 319.18 462.98 319.36
  Q 462.51 319.65 462.13 319.26
  L 461.05 318.14
  L 461.24 296.27
  Q 461.25 295.64 460.63 295.47
  L 436.61 288.82
  L 410.46 280.86
  L 446.00 276.33
  Q 446.52 276.26 446.27 275.80
  Q 445.44 274.24 444.09 273.13
  Q 417.54 251.34 389.50 227.75
  Q 389.12 227.43 389.12 226.94
  L 389.14 143.67
  Q 389.14 143.07 388.56 142.95
  Q 387.78 142.79 386.98 142.80
  Q 368.16 142.85 346.20 142.79
  A 0.54 0.54 0.0 0 0 345.66 143.33
  L 345.92 196.03
  A 0.22 0.22 0.0 0 1 345.58 196.21
  Q 344.16 195.25 342.88 194.21
  Q 315.41 171.90 285.01 145.57
  A 0.86 0.86 0.0 0 0 283.91 145.55
  L 225.07 193.81
  Q 223.93 194.74 224.03 193.27
  L 224.59 184.53
  Q 224.64 183.66 223.77 183.66
  L 184.03 183.41
  A 0.56 0.56 0.0 0 0 183.47 183.97
  L 183.52 230.54
  Q 183.52 231.04 183.18 231.42
  Q 181.82 232.95 180.22 234.30
  Q 146.65 262.67 115.03 289.77
  A 0.79 0.79 0.0 0 0 115.38 291.14
  L 142.30 296.97
  Q 142.47 297.70 142.24 298.30
  Q 138.86 299.13 137.00 299.27
  Q 123.01 300.33 108.77 300.98
  A 0.88 0.88 0.0 0 0 107.93 301.86
  L 108.02 323.63
  L 65.34 339.02
  Q 64.79 339.22 64.80 339.80
  L 65.07 399.79
  Q 64.67 411.81 66.55 423.28
  Q 48.59 397.02 37.57 367.19
  Q 34.11 357.82 31.59 348.42
  Q 18.60 299.92 22.60 249.55
  Q 24.15 230.03 28.86 211.58
  C 37.06 179.42 50.51 148.85 69.04 122.99
  Q 76.56 112.51 86.72 100.88
  C 108.61 75.84 133.57 57.01 163.03 42.01
  C 186.53 30.05 212.38 22.33 238.86 18.13
  Q 248.76 16.57 258.48 15.97
  Q 301.87 13.33 343.35 24.61
  Q 387.77 36.69 424.94 65.26
  Q 492.98 117.55 516.84 199.37
  C 525.48 229.03 528.25 260.60 526.57 292.74
  Q 525.60 311.16 522.31 326.99
  C 518.09 347.33 512.09 367.24 503.49 386.03
  Q 497.99 398.05 491.63 409.65
  Q 489.77 413.05 487.27 416.25
  Z"
/>
<path fill="#305b99" d="
  M 410.46 280.86
  Q 409.58 280.72 408.34 281.16
  L 377.05 285.65
  Q 374.52 285.63 373.11 284.39
  Q 360.10 273.00 346.91 260.78
  L 283.12 205.51
  A 1.32 1.31 -45.2 0 0 281.38 205.52
  L 218.52 261.02
  L 175.88 302.71
  A 2.52 2.50 -61.2 0 1 173.64 303.37
  L 142.30 296.97
  L 115.38 291.14
  A 0.79 0.79 0.0 0 1 115.03 289.77
  Q 146.65 262.67 180.22 234.30
  Q 181.82 232.95 183.18 231.42
  Q 183.52 231.04 183.52 230.54
  L 183.47 183.97
  A 0.56 0.56 0.0 0 1 184.03 183.41
  L 223.77 183.66
  Q 224.64 183.66 224.59 184.53
  L 224.03 193.27
  Q 223.93 194.74 225.07 193.81
  L 283.91 145.55
  A 0.86 0.86 0.0 0 1 285.01 145.57
  Q 315.41 171.90 342.88 194.21
  Q 344.16 195.25 345.58 196.21
  A 0.22 0.22 0.0 0 0 345.92 196.03
  L 345.66 143.33
  A 0.54 0.54 0.0 0 1 346.20 142.79
  Q 368.16 142.85 386.98 142.80
  Q 387.78 142.79 388.56 142.95
  Q 389.14 143.07 389.14 143.67
  L 389.12 226.94
  Q 389.12 227.43 389.50 227.75
  Q 417.54 251.34 444.09 273.13
  Q 445.44 274.24 446.27 275.80
  Q 446.52 276.26 446.00 276.33
  L 410.46 280.86
  Z"
/>
<path fill="#f6f7fc" d="
  M 346.91 260.78
  Q 345.86 275.89 346.94 291.58
  L 283.00 238.74
  A 0.27 0.26 43.9 0 0 282.67 238.74
  L 218.65 291.67
  L 218.52 261.02
  L 281.38 205.52
  A 1.32 1.31 -45.2 0 1 283.12 205.51
  L 346.91 260.78
  Z"
/>
<path fill="#305b99" d="
  M 346.94 291.58
  L 362.43 304.28
  A 0.78 0.78 0.0 0 1 362.39 305.51
  Q 362.13 305.70 361.78 305.70
  Q 353.80 305.78 345.59 305.76
  A 0.27 0.27 0.0 0 0 345.32 306.04
  L 345.58 325.51
  L 345.22 405.92
  L 308.07 405.44
  Q 307.14 405.43 307.14 404.50
  Q 307.21 378.25 307.27 350.69
  C 307.28 341.54 305.78 335.20 297.93 329.41
  C 280.52 316.57 256.51 326.97 256.34 348.89
  Q 256.10 378.26 256.52 404.41
  A 1.01 1.01 0.0 0 1 255.52 405.44
  L 220.23 405.73
  L 220.35 339.33
  L 220.46 306.68
  Q 220.46 306.02 219.79 306.02
  L 201.75 306.02
  Q 210.37 297.67 218.65 291.67
  L 282.67 238.74
  A 0.27 0.26 43.9 0 1 283.00 238.74
  L 346.94 291.58
  Z"
/>
<path fill="#de5c8b" d="
  M 346.91 260.78
  Q 360.10 273.00 373.11 284.39
  Q 374.52 285.63 377.05 285.65
  Q 378.30 302.92 377.71 320.28
  Q 377.00 318.38 374.26 319.64
  Q 371.71 320.82 369.37 321.94
  Q 368.50 322.36 367.61 322.60
  Q 366.68 322.85 365.83 323.30
  Q 364.54 323.98 363.10 324.34
  Q 357.05 325.88 350.98 327.39
  Q 350.52 327.50 350.64 327.96
  Q 350.74 328.32 350.07 328.54
  Q 349.69 328.66 349.30 328.71
  Q 348.47 328.80 347.71 329.08
  Q 347.23 329.26 347.02 328.79
  L 345.58 325.51
  L 345.32 306.04
  A 0.27 0.27 0.0 0 1 345.59 305.76
  Q 353.80 305.78 361.78 305.70
  Q 362.13 305.70 362.39 305.51
  A 0.78 0.78 0.0 0 0 362.43 304.28
  L 346.94 291.58
  Q 345.86 275.89 346.91 260.78
  Z"
/>
<path fill="#3ace81" d="
  M 218.52 261.02
  L 218.65 291.67
  Q 210.37 297.67 201.75 306.02
  Q 196.82 307.77 191.03 308.98
  Q 187.00 309.83 183.03 310.80
  Q 179.01 311.77 174.99 312.52
  C 174.16 312.68 173.44 313.24 172.67 313.37
  Q 171.35 313.61 170.93 313.80
  C 169.35 314.49 167.78 314.99 166.33 315.95
  Q 165.82 316.29 165.20 316.12
  A 0.87 0.85 30.8 0 0 164.38 316.32
  C 163.28 317.32 162.03 317.02 160.72 317.39
  Q 156.94 318.45 153.12 319.34
  Q 152.97 319.37 152.84 319.27
  Q 152.80 319.23 152.75 319.21
  Q 152.58 319.13 152.42 319.21
  Q 151.53 319.65 150.68 319.39
  Q 149.98 319.17 149.19 319.20
  Q 146.26 319.30 143.16 319.24
  Q 142.59 319.22 142.56 319.80
  Q 142.53 320.45 142.27 320.72
  L 142.24 298.30
  Q 142.47 297.70 142.30 296.97
  L 173.64 303.37
  A 2.52 2.50 -61.2 0 0 175.88 302.71
  L 218.52 261.02
  Z"
/>
<path fill="#f8ad69" d="
  M 410.46 280.86
  L 436.61 288.82
  L 436.69 333.64
  L 436.60 343.20
  Q 433.98 345.11 428.24 345.71
  Q 419.70 346.60 414.32 346.14
  Q 412.78 346.01 411.27 345.56
  A 1.67 1.65 45.3 0 0 410.31 345.55
  L 408.29 346.14
  L 408.47 328.52
  L 408.34 281.16
  Q 409.58 280.72 410.46 280.86
  Z"
/>
<path fill="#eb717b" d="
  M 408.34 281.16
  L 408.47 328.52
  L 402.38 328.12
  A 1.78 1.77 -26.8 0 1 401.55 327.85
  Q 399.20 326.44 396.86 326.70
  C 395.01 326.90 393.41 326.55 391.52 326.73
  Q 388.58 327.00 385.67 326.46
  Q 385.09 326.35 384.35 326.45
  Q 383.74 326.53 383.17 326.52
  Q 382.69 326.52 382.37 326.16
  Q 381.69 325.38 380.70 325.63
  Q 379.95 325.82 379.24 325.63
  Q 377.94 325.28 377.76 323.77
  L 377.71 320.28
  Q 378.30 302.92 377.05 285.65
  L 408.34 281.16
  Z"
/>
<path fill="#f48f65" d="
  M 436.61 288.82
  L 460.63 295.47
  Q 461.25 295.64 461.24 296.27
  L 461.05 318.14
  L 460.91 320.54
  Q 460.83 321.89 460.82 323.25
  Q 460.82 323.82 460.40 324.18
  Q 460.16 324.39 460.16 324.71
  Q 460.16 325.70 459.27 325.80
  Q 458.78 325.85 458.35 326.03
  Q 447.91 330.40 436.69 333.64
  L 436.61 288.82
  Z"
/>
<path fill="#67dd80" d="
  M 142.24 298.30
  L 142.27 320.72
  L 142.26 358.09
  L 142.27 373.54
  Q 139.44 375.82 133.66 375.52
  Q 132.21 375.45 130.91 375.72
  Q 129.52 376.00 128.14 376.16
  Q 127.36 376.24 127.63 375.51
  Q 127.75 375.17 127.43 375.01
  Q 127.01 374.80 126.52 374.89
  Q 124.26 375.30 122.01 375.76
  Q 120.21 376.14 117.48 375.84
  Q 112.17 375.26 107.73 376.72
  L 108.02 323.63
  L 107.93 301.86
  A 0.88 0.88 0.0 0 1 108.77 300.98
  Q 123.01 300.33 137.00 299.27
  Q 138.86 299.13 142.24 298.30
  Z"
/>
<path fill="#2ac584" d="
  M 201.75 306.02
  L 219.79 306.02
  Q 220.46 306.02 220.46 306.68
  L 220.35 339.33
  Q 220.09 339.31 220.03 339.77
  Q 219.93 340.50 219.32 340.09
  Q 219.18 340.00 219.04 339.93
  Q 218.86 339.86 218.70 339.98
  Q 217.66 340.79 216.48 341.01
  Q 215.00 341.28 214.35 341.61
  Q 212.24 342.70 210.01 343.76
  Q 208.74 344.36 207.39 344.46
  Q 205.97 344.57 204.64 345.02
  Q 202.70 345.69 200.79 346.16
  C 197.72 346.91 194.91 347.79 191.75 347.60
  Q 191.17 347.56 191.36 348.11
  Q 191.42 348.28 191.28 348.40
  Q 191.02 348.62 190.67 348.68
  Q 188.99 349.00 187.25 349.66
  A 2.05 2.03 -52.6 0 1 186.30 349.79
  Q 184.81 349.66 183.90 350.59
  Q 183.78 350.71 183.74 350.55
  Q 183.72 350.40 183.82 350.29
  A 0.08 0.08 0.0 0 0 183.77 350.16
  Q 182.15 350.07 180.98 351.08
  Q 180.62 351.39 180.16 351.29
  Q 179.33 351.09 177.76 351.33
  Q 166.94 353.00 156.08 354.47
  C 154.88 354.64 153.88 354.31 152.66 354.61
  A 0.73 0.73 0.0 0 1 151.83 354.23
  Q 151.57 353.73 151.02 353.82
  Q 150.74 353.86 150.84 354.13
  Q 150.89 354.26 150.85 354.39
  Q 150.66 355.09 150.09 354.64
  Q 149.48 354.15 148.75 354.16
  Q 146.76 354.19 144.84 353.96
  Q 144.46 353.91 144.14 354.13
  L 143.54 354.54
  A 0.08 0.08 0.0 0 1 143.42 354.48
  Q 143.39 354.25 143.28 354.06
  Q 143.05 353.66 142.97 354.12
  L 142.26 358.09
  L 142.27 320.72
  Q 142.53 320.45 142.56 319.80
  Q 142.59 319.22 143.16 319.24
  Q 146.26 319.30 149.19 319.20
  Q 149.98 319.17 150.68 319.39
  Q 151.53 319.65 152.42 319.21
  Q 152.58 319.13 152.75 319.21
  Q 152.80 319.23 152.84 319.27
  Q 152.97 319.37 153.12 319.34
  Q 156.94 318.45 160.72 317.39
  C 162.03 317.02 163.28 317.32 164.38 316.32
  A 0.87 0.85 30.8 0 1 165.20 316.12
  Q 165.82 316.29 166.33 315.95
  C 167.78 314.99 169.35 314.49 170.93 313.80
  Q 171.35 313.61 172.67 313.37
  C 173.44 313.24 174.16 312.68 174.99 312.52
  Q 179.01 311.77 183.03 310.80
  Q 187.00 309.83 191.03 308.98
  Q 196.82 307.77 201.75 306.02
  Z"
/>
<path fill="#d545c3" d="
  M 487.78 402.22
  L 487.51 398.82
  Q 487.47 398.30 487.23 398.77
  Q 486.93 399.34 487.13 400.13
  Q 487.23 400.52 487.18 400.12
  Q 487.16 399.90 487.14 399.67
  Q 487.07 398.85 486.61 399.53
  Q 486.32 399.96 486.40 400.43
  Q 486.46 400.83 486.12 400.61
  L 485.85 400.44
  A 0.63 0.63 0.0 0 0 484.95 400.66
  L 484.57 401.36
  A 0.63 0.62 21.4 0 1 483.87 401.66
  Q 479.80 400.52 476.59 400.81
  Q 473.09 401.12 469.26 401.76
  Q 468.22 401.93 467.83 402.87
  Q 467.76 403.03 467.60 403.10
  Q 467.44 403.17 467.25 403.07
  Q 466.93 402.90 466.92 402.54
  Q 466.91 402.22 466.71 401.99
  Q 466.22 401.42 466.09 402.16
  L 465.30 406.72
  L 464.73 319.71
  L 464.74 317.29
  Q 464.74 316.44 465.54 316.74
  L 487.52 325.08
  Q 488.19 325.33 488.19 326.05
  L 487.78 402.22
  Z"
/>
<path fill="#f3f5fd" d="
  M 461.05 318.14
  L 462.13 319.26
  Q 462.51 319.65 462.98 319.36
  Q 463.29 319.18 463.57 318.98
  Q 464.13 318.59 464.36 319.22
  Q 464.48 319.54 464.73 319.71
  L 465.30 406.72
  L 465.29 424.69
  A 0.70 0.69 9.3 0 0 465.77 425.35
  L 478.91 429.66
  L 487.16 432.60
  Q 486.22 433.38 484.38 432.40
  Q 483.44 431.89 484.00 432.80
  Q 484.13 433.01 483.58 433.21
  Q 483.23 433.33 482.87 433.30
  L 481.53 433.16
  Q 480.98 433.10 480.87 433.65
  Q 480.48 435.51 478.38 436.31
  Q 477.88 436.50 477.88 437.03
  L 477.88 437.81
  Q 477.87 438.41 477.28 438.46
  Q 476.31 438.55 475.59 439.17
  Q 475.15 439.55 474.60 439.38
  L 473.77 439.12
  A 0.85 0.85 0.0 0 0 472.91 439.32
  Q 472.74 439.49 472.65 439.72
  Q 472.52 440.02 472.75 440.25
  L 473.02 440.51
  Q 473.38 440.88 472.87 440.97
  Q 472.55 441.03 472.49 441.37
  Q 472.44 441.65 472.72 441.60
  Q 472.90 441.57 472.89 441.77
  Q 472.86 442.03 472.60 442.03
  Q 471.43 442.03 470.27 442.33
  Q 469.82 442.45 470.18 442.74
  Q 470.42 442.95 470.72 442.87
  Q 470.99 442.80 470.78 442.99
  Q 470.45 443.29 470.74 443.63
  Q 471.06 444.01 470.57 443.92
  Q 469.94 443.81 469.43 443.36
  Q 469.00 442.99 468.46 443.14
  L 466.94 443.59
  Q 456.85 441.06 446.70 438.72
  Q 369.62 420.99 290.50 419.91
  C 229.33 419.08 169.64 424.63 110.22 437.12
  Q 109.30 436.93 108.47 436.55
  Q 108.22 436.43 108.24 436.66
  Q 108.24 436.72 108.28 436.77
  Q 108.45 436.98 108.19 436.92
  Q 107.81 436.83 107.45 436.90
  Q 106.92 437.01 107.18 436.53
  Q 107.20 436.48 107.21 436.44
  Q 107.26 436.26 107.11 436.16
  Q 105.27 434.97 104.10 433.20
  Q 103.96 432.99 103.70 432.96
  Q 103.39 432.93 103.38 432.62
  Q 103.31 431.02 101.84 430.91
  Q 101.16 430.85 101.48 430.25
  L 101.86 429.56
  Q 102.06 429.19 101.95 428.78
  Q 101.46 427.05 100.12 425.58
  Q 99.78 425.19 99.27 425.09
  Q 98.40 424.92 97.63 424.38
  Q 96.96 423.92 97.76 424.09
  L 98.25 424.20
  Q 98.57 424.27 98.61 423.94
  Q 98.63 423.68 98.80 423.53
  Q 99.19 423.19 99.60 423.51
  Q 99.94 423.78 99.82 423.98
  Q 99.54 424.44 100.08 424.36
  Q 100.87 424.23 101.52 423.76
  Q 102.08 423.36 101.39 423.41
  Q 101.25 423.42 101.14 423.34
  Q 101.00 423.23 101.16 423.15
  Q 101.52 422.97 101.87 423.14
  Q 102.41 423.41 102.71 422.89
  Q 102.99 422.43 103.47 422.64
  Q 103.96 422.85 104.35 422.50
  Q 105.51 421.43 107.09 420.74
  L 108.71 420.16
  Q 109.29 419.95 109.50 419.37
  C 111.01 415.34 112.48 412.43 116.32 409.88
  C 122.83 405.57 130.52 404.48 138.47 405.98
  Q 139.02 406.08 139.20 405.55
  Q 140.69 400.93 142.88 398.17
  Q 151.81 390.94 162.99 391.16
  Q 172.21 391.34 177.37 395.68
  Q 177.83 396.07 178.33 395.75
  Q 179.53 395.01 180.81 394.28
  C 185.33 391.69 192.48 392.50 197.57 394.00
  Q 206.63 396.66 211.56 405.06
  A 1.35 1.34 74.8 0 0 212.72 405.73
  L 220.23 405.73
  L 255.52 405.44
  A 1.01 1.01 0.0 0 0 256.52 404.41
  Q 256.10 378.26 256.34 348.89
  C 256.51 326.97 280.52 316.57 297.93 329.41
  C 305.78 335.20 307.28 341.54 307.27 350.69
  Q 307.21 378.25 307.14 404.50
  Q 307.14 405.43 308.07 405.44
  L 345.22 405.92
  Q 345.92 406.58 347.12 405.84
  Q 347.74 405.45 348.22 404.50
  C 354.04 393.02 368.39 390.00 379.89 393.87
  L 382.49 395.35
  Q 382.95 395.61 383.31 395.22
  C 389.19 388.88 400.47 389.59 407.52 393.14
  Q 412.41 394.85 415.96 398.54
  Q 416.96 399.57 419.05 404.79
  Q 419.25 405.28 419.77 405.34
  Q 420.84 405.46 422.00 405.50
  Q 428.25 405.69 434.14 408.14
  Q 441.88 411.70 444.13 418.92
  A 0.88 0.86 -0.5 0 0 444.72 419.49
  L 460.39 424.15
  Q 460.96 424.32 461.04 423.73
  Q 461.08 423.37 460.91 423.02
  Q 460.71 422.61 460.71 422.15
  L 460.91 320.54
  L 461.05 318.14
  Z"
/>
<path fill="#ce428a" d="
  M 377.71 320.28
  L 377.76 323.77
  Q 377.25 351.97 377.37 380.15
  Q 377.37 380.23 377.10 385.33
  Q 376.94 388.38 377.59 391.39
  Q 377.70 391.88 378.17 392.05
  Q 380.48 392.88 379.89 393.87
  C 368.39 390.00 354.04 393.02 348.22 404.50
  Q 347.74 405.45 347.12 405.84
  Q 345.92 406.58 345.22 405.92
  L 345.58 325.51
  L 347.02 328.79
  Q 347.23 329.26 347.71 329.08
  Q 348.47 328.80 349.30 328.71
  Q 349.69 328.66 350.07 328.54
  Q 350.74 328.32 350.64 327.96
  Q 350.52 327.50 350.98 327.39
  Q 357.05 325.88 363.10 324.34
  Q 364.54 323.98 365.83 323.30
  Q 366.68 322.85 367.61 322.60
  Q 368.50 322.36 369.37 321.94
  Q 371.71 320.82 374.26 319.64
  Q 377.00 318.38 377.71 320.28
  Z"
/>
<path fill="#e96778" d="
  M 460.91 320.54
  L 460.71 422.15
  Q 460.71 422.61 460.91 423.02
  Q 461.08 423.37 461.04 423.73
  Q 460.96 424.32 460.39 424.15
  L 444.72 419.49
  A 0.88 0.86 -0.5 0 1 444.13 418.92
  Q 441.88 411.70 434.14 408.14
  Q 435.47 406.77 435.96 405.67
  Q 436.15 405.22 436.13 404.74
  C 436.08 403.94 436.34 403.39 436.34 402.58
  Q 436.60 372.92 436.60 343.20
  L 436.69 333.64
  Q 447.91 330.40 458.35 326.03
  Q 458.78 325.85 459.27 325.80
  Q 460.16 325.70 460.16 324.71
  Q 460.16 324.39 460.40 324.18
  Q 460.82 323.82 460.82 323.25
  Q 460.83 321.89 460.91 320.54
  Z"
/>
<path fill="#57d9fa" d="
  M 108.02 323.63
  L 107.73 376.72
  L 107.69 390.89
  Q 107.35 392.96 104.32 393.76
  Q 101.59 394.48 100.75 394.81
  Q 99.03 395.50 97.26 396.11
  Q 96.68 396.32 96.05 396.34
  Q 95.34 396.36 95.37 397.05
  Q 95.39 397.67 94.90 397.30
  Q 94.72 397.16 94.51 397.15
  Q 94.14 397.12 93.88 397.37
  Q 93.35 397.90 92.76 397.42
  Q 92.32 397.07 91.76 397.14
  Q 84.47 398.15 77.37 399.24
  Q 75.80 399.48 74.15 399.23
  C 72.58 399.00 70.28 398.23 68.80 398.85
  A 1.87 1.87 0.0 0 1 66.21 397.21
  Q 66.17 396.17 65.65 395.16
  Q 65.29 394.46 65.25 395.24
  L 65.07 399.79
  L 64.80 339.80
  Q 64.79 339.22 65.34 339.02
  L 108.02 323.63
  Z"
/>
<path fill="#df5386" d="
  M 377.76 323.77
  Q 377.94 325.28 379.24 325.63
  Q 379.95 325.82 380.70 325.63
  Q 381.69 325.38 382.37 326.16
  Q 382.69 326.52 383.17 326.52
  Q 383.74 326.53 384.35 326.45
  Q 385.09 326.35 385.67 326.46
  Q 388.58 327.00 391.52 326.73
  C 393.41 326.55 395.01 326.90 396.86 326.70
  Q 399.20 326.44 401.55 327.85
  A 1.78 1.77 -26.8 0 0 402.38 328.12
  L 408.47 328.52
  L 408.29 346.14
  Q 408.17 366.87 407.93 387.25
  Q 407.90 389.82 408.53 392.26
  A 0.68 0.67 68.5 0 1 408.21 393.02
  Q 407.94 393.17 407.52 393.14
  C 400.47 389.59 389.19 388.88 383.31 395.22
  Q 382.95 395.61 382.49 395.35
  L 379.89 393.87
  Q 380.48 392.88 378.17 392.05
  Q 377.70 391.88 377.59 391.39
  Q 376.94 388.38 377.10 385.33
  Q 377.37 380.23 377.37 380.15
  Q 377.25 351.97 377.76 323.77
  Z"
/>
<path fill="#14b982" d="
  M 220.35 339.33
  L 220.23 405.73
  L 212.72 405.73
  A 1.35 1.34 74.8 0 1 211.56 405.06
  Q 206.63 396.66 197.57 394.00
  C 192.48 392.50 185.33 391.69 180.81 394.28
  Q 179.53 395.01 178.33 395.75
  Q 177.83 396.07 177.37 395.68
  Q 172.21 391.34 162.99 391.16
  Q 151.81 390.94 142.88 398.17
  L 142.27 373.54
  L 142.26 358.09
  L 142.97 354.12
  Q 143.05 353.66 143.28 354.06
  Q 143.39 354.25 143.42 354.48
  A 0.08 0.08 0.0 0 0 143.54 354.54
  L 144.14 354.13
  Q 144.46 353.91 144.84 353.96
  Q 146.76 354.19 148.75 354.16
  Q 149.48 354.15 150.09 354.64
  Q 150.66 355.09 150.85 354.39
  Q 150.89 354.26 150.84 354.13
  Q 150.74 353.86 151.02 353.82
  Q 151.57 353.73 151.83 354.23
  A 0.73 0.73 0.0 0 0 152.66 354.61
  C 153.88 354.31 154.88 354.64 156.08 354.47
  Q 166.94 353.00 177.76 351.33
  Q 179.33 351.09 180.16 351.29
  Q 180.62 351.39 180.98 351.08
  Q 182.15 350.07 183.77 350.16
  A 0.08 0.08 0.0 0 1 183.82 350.29
  Q 183.72 350.40 183.74 350.55
  Q 183.78 350.71 183.90 350.59
  Q 184.81 349.66 186.30 349.79
  A 2.05 2.03 -52.6 0 0 187.25 349.66
  Q 188.99 349.00 190.67 348.68
  Q 191.02 348.62 191.28 348.40
  Q 191.42 348.28 191.36 348.11
  Q 191.17 347.56 191.75 347.60
  C 194.91 347.79 197.72 346.91 200.79 346.16
  Q 202.70 345.69 204.64 345.02
  Q 205.97 344.57 207.39 344.46
  Q 208.74 344.36 210.01 343.76
  Q 212.24 342.70 214.35 341.61
  Q 215.00 341.28 216.48 341.01
  Q 217.66 340.79 218.70 339.98
  Q 218.86 339.86 219.04 339.93
  Q 219.18 340.00 219.32 340.09
  Q 219.93 340.50 220.03 339.77
  Q 220.09 339.31 220.35 339.33
  Z"
/>
<path fill="#f08681" d="
  M 436.60 343.20
  Q 436.60 372.92 436.34 402.58
  C 436.34 403.39 436.08 403.94 436.13 404.74
  Q 436.15 405.22 435.96 405.67
  Q 435.47 406.77 434.14 408.14
  Q 428.25 405.69 422.00 405.50
  Q 420.84 405.46 419.77 405.34
  Q 419.25 405.28 419.05 404.79
  Q 416.96 399.57 415.96 398.54
  Q 412.41 394.85 407.52 393.14
  Q 407.94 393.17 408.21 393.02
  A 0.68 0.67 68.5 0 0 408.53 392.26
  Q 407.90 389.82 407.93 387.25
  Q 408.17 366.87 408.29 346.14
  L 410.31 345.55
  A 1.67 1.65 45.3 0 1 411.27 345.56
  Q 412.78 346.01 414.32 346.14
  Q 419.70 346.60 428.24 345.71
  Q 433.98 345.11 436.60 343.20
  Z"
/>
<path fill="#e9e8ff" d="
  M 0.00 348.24
  Q 0.17 351.94 0.29 355.64
  Q 0.39 358.82 0.88 361.83
  Q 1.39 365.02 1.65 368.00
  A 1.38 1.34 19.5 0 0 2.10 368.91
  Q 2.64 369.39 2.12 369.91
  A 1.12 1.11 55.6 0 0 1.89 371.15
  L 3.18 374.08
  Q 3.37 374.53 3.84 374.39
  Q 4.06 374.33 4.06 374.14
  Q 4.06 373.65 4.31 374.07
  Q 4.45 374.30 4.72 374.32
  Q 5.55 374.42 4.79 374.78
  Q 4.48 374.92 4.29 375.19
  Q 4.12 375.44 4.29 375.70
  Q 5.03 376.81 6.20 377.07
  A 2.45 2.26 -80.5 0 1 7.92 379.71
  Q 7.85 380.27 8.12 380.73
  A 1.14 1.11 45.2 0 1 8.13 381.84
  Q 7.41 383.08 8.36 384.01
  Q 8.62 384.27 8.71 384.62
  Q 9.05 385.91 9.91 386.94
  A 0.94 0.90 -56.3 0 1 10.07 387.83
  Q 9.75 388.74 10.24 389.71
  A 0.40 0.39 -39.6 0 0 10.90 389.77
  Q 11.33 389.23 11.96 389.42
  Q 12.44 389.56 12.42 390.06
  Q 12.31 392.52 14.06 393.74
  A 1.39 1.38 -78.5 0 1 14.64 394.62
  Q 14.81 395.47 15.62 395.36
  Q 16.24 395.28 16.25 395.90
  Q 16.26 396.15 16.43 396.38
  A 0.56 0.55 -15.3 0 0 16.84 396.61
  Q 17.36 396.67 17.37 397.36
  Q 17.38 397.82 17.00 398.07
  Q 16.85 398.17 16.86 398.35
  Q 16.87 398.52 16.93 398.67
  Q 17.23 399.43 17.62 400.15
  Q 17.92 400.70 17.43 401.09
  Q 17.32 401.18 17.44 401.32
  A 2.78 2.07 79.9 0 0 17.78 401.64
  Q 18.31 402.04 18.30 402.75
  Q 18.29 403.33 18.76 403.68
  Q 19.69 404.36 20.15 405.42
  Q 20.57 406.38 20.89 405.38
  Q 20.94 405.22 21.10 405.14
  Q 21.55 404.94 21.74 405.39
  Q 22.71 407.75 22.94 410.29
  Q 22.96 410.51 23.05 410.71
  Q 23.21 411.06 23.51 410.78
  A 0.05 0.05 0.0 0 1 23.59 410.81
  Q 23.76 412.88 23.92 414.99
  Q 24.01 416.26 24.78 416.54
  Q 25.24 416.70 25.15 417.18
  Q 25.14 417.24 25.16 417.29
  Q 25.23 417.54 25.44 417.70
  Q 27.72 419.40 27.06 422.64
  A 0.23 0.22 -82.0 0 0 27.26 422.91
  L 27.52 422.93
  Q 27.81 422.96 27.82 422.67
  Q 27.86 421.36 29.25 420.55
  Q 29.67 420.30 29.87 420.75
  Q 30.90 423.12 30.82 426.12
  Q 30.81 426.62 31.24 426.88
  Q 31.88 427.26 31.60 428.00
  Q 31.35 428.67 32.04 428.82
  L 33.49 429.15
  Q 33.87 429.23 33.90 429.61
  Q 33.96 430.40 34.47 430.99
  Q 34.99 431.59 34.22 431.78
  Q 32.49 432.20 33.32 433.80
  Q 33.85 434.82 35.11 435.43
  Q 35.62 435.67 35.96 435.23
  Q 36.15 434.99 36.34 434.76
  Q 36.74 434.28 37.24 434.64
  Q 37.69 434.97 38.07 434.51
  Q 38.46 434.03 38.68 434.62
  Q 38.95 435.31 38.87 436.05
  A 0.73 0.73 0.0 0 0 39.17 436.73
  Q 39.85 437.21 40.19 436.58
  Q 40.48 436.07 40.62 436.64
  Q 41.00 438.22 40.01 439.18
  Q 39.65 439.52 39.80 439.99
  Q 40.53 442.22 41.84 444.34
  C 42.17 444.88 42.64 445.24 43.27 445.32
  Q 43.83 445.40 44.07 445.90
  L 44.78 447.40
  Q 45.00 447.85 45.48 447.98
  Q 48.03 448.67 48.18 451.31
  Q 48.22 451.87 48.78 451.89
  Q 49.66 451.90 50.20 452.55
  A 1.45 1.42 -15.0 0 0 51.03 453.02
  L 53.30 453.42
  Q 53.72 453.49 53.98 453.84
  Q 54.33 454.30 54.93 454.33
  Q 55.52 454.36 55.56 454.94
  Q 55.74 457.41 57.65 459.25
  Q 57.97 459.56 57.94 460.01
  Q 57.84 461.67 59.18 461.90
  Q 59.73 462.00 60.16 461.66
  Q 60.61 461.31 61.21 461.32
  Q 61.78 461.34 61.73 461.92
  Q 61.55 464.26 63.31 465.61
  Q 63.77 465.96 64.34 465.84
  Q 64.81 465.74 65.04 466.10
  Q 65.20 466.36 65.51 466.37
  L 65.88 466.37
  Q 65.92 466.37 65.92 466.41
  Q 65.99 467.76 66.79 468.84
  Q 67.16 469.35 67.75 469.11
  L 69.49 468.38
  A 0.75 0.74 60.0 0 1 70.37 468.62
  L 71.47 470.08
  Q 71.71 470.41 71.51 470.75
  Q 71.42 470.90 71.27 470.99
  Q 70.93 471.18 71.12 471.53
  Q 71.92 473.00 73.36 473.34
  Q 73.74 473.43 73.71 473.82
  Q 73.58 475.69 74.47 477.03
  Q 74.77 477.49 74.38 477.88
  L 74.08 478.18
  Q 73.78 478.48 74.08 478.77
  L 75.88 480.51
  Q 76.13 480.76 76.22 481.10
  Q 76.27 481.30 76.42 481.46
  Q 76.73 481.81 77.19 481.84
  Q 79.46 481.95 79.81 484.40
  Q 79.87 484.83 80.29 484.89
  Q 82.47 485.20 84.44 486.53
  Q 84.84 486.80 84.91 487.28
  Q 85.02 488.08 85.80 488.25
  Q 87.51 488.63 86.99 490.30
  Q 86.29 492.55 88.00 493.49
  A 0.32 0.31 -69.7 0 1 88.15 493.83
  Q 87.98 494.47 88.29 495.05
  A 0.47 0.47 0.0 0 0 88.82 495.29
  Q 90.09 494.99 91.03 496.01
  Q 91.38 496.39 91.88 496.27
  Q 92.92 496.01 92.87 495.00
  Q 92.83 494.37 93.44 494.19
  C 95.48 493.58 96.22 495.63 98.28 494.44
  A 0.90 0.90 0.0 0 1 99.62 495.07
  Q 99.84 496.37 99.26 497.47
  Q 99.01 497.92 99.41 498.26
  Q 99.68 498.49 100.06 498.45
  Q 100.56 498.40 100.95 498.11
  Q 101.98 497.36 103.27 497.41
  Q 103.83 497.44 104.05 497.95
  Q 104.29 498.54 103.97 499.08
  Q 103.68 499.56 104.01 500.00
  Q 104.83 501.09 106.23 500.74
  Q 107.53 500.42 108.55 501.34
  Q 110.61 503.21 113.08 504.22
  C 114.59 504.84 116.18 505.92 116.74 507.55
  Q 117.21 508.91 117.99 510.14
  Q 118.25 510.55 118.70 510.74
  Q 119.36 511.00 119.30 511.67
  Q 119.26 512.15 119.73 512.25
  L 121.91 512.72
  Q 122.45 512.84 122.77 513.29
  Q 124.96 516.38 128.82 515.35
  A 3.36 3.33 55.0 0 1 131.63 515.86
  Q 136.20 519.12 140.80 520.83
  Q 141.39 521.04 141.62 521.63
  C 141.98 522.52 142.74 523.06 143.72 523.04
  Q 145.00 523.03 146.27 523.14
  Q 147.62 523.26 148.25 524.38
  Q 148.33 524.53 148.47 524.45
  Q 149.51 523.95 150.36 524.78
  Q 150.74 525.14 151.26 525.08
  Q 153.17 524.88 154.29 526.71
  Q 154.58 527.18 154.43 527.72
  Q 154.17 528.66 153.41 529.23
  Q 152.80 529.70 153.28 530.30
  Q 153.48 530.54 153.34 530.83
  A 1.12 1.08 8.3 0 0 154.53 532.37
  Q 157.15 531.98 159.02 530.21
  Q 159.38 529.86 159.88 529.98
  L 163.04 530.74
  Q 163.60 530.87 163.86 531.38
  Q 163.98 531.62 164.15 531.82
  A 0.94 0.92 68.8 0 0 164.88 532.15
  Q 167.28 532.09 169.58 533.14
  Q 170.01 533.34 170.46 533.18
  Q 170.72 533.09 171.00 533.10
  Q 171.28 533.10 171.51 533.24
  Q 173.32 534.28 174.83 535.47
  Q 175.21 535.77 175.69 535.68
  Q 177.31 535.36 178.90 536.61
  Q 179.13 536.79 179.13 537.08
  L 179.13 538.83
  A 1.52 1.52 0.0 0 0 181.38 540.16
  Q 182.32 539.64 183.29 540.21
  Q 183.91 540.58 184.55 540.25
  C 186.14 539.41 188.20 539.73 189.41 541.17
  Q 191.40 543.55 194.52 542.93
  Q 195.07 542.83 195.39 543.29
  Q 195.65 543.67 196.06 543.94
  Q 196.51 544.23 196.90 543.85
  L 197.13 543.61
  Q 197.50 543.24 197.45 543.76
  L 197.36 544.72
  Q 197.32 545.09 197.60 545.33
  Q 198.00 545.68 197.65 546.06
  Q 197.29 546.46 197.39 546.99
  Q 197.53 547.77 198.30 548.02
  Q 198.96 548.24 199.58 548.00
  Q 201.62 547.20 204.32 547.93
  Q 204.78 548.06 205.01 548.46
  Q 205.56 549.45 206.72 549.34
  Q 208.02 549.21 209.27 548.89
  Q 209.80 548.76 210.16 549.16
  Q 210.56 549.60 210.87 549.09
  A 0.45 0.45 0.0 0 1 211.62 549.08
  C 212.49 550.35 213.98 549.86 214.81 551.14
  Q 215.14 551.63 215.68 551.39
  Q 217.62 550.53 219.02 552.08
  Q 219.61 552.73 219.00 553.35
  Q 218.84 553.52 219.09 553.58
  Q 219.83 553.77 219.36 554.36
  Q 218.87 554.98 218.99 555.87
  A 1.25 1.25 0.0 0 0 220.36 556.94
  Q 221.77 556.79 222.97 556.25
  Q 223.72 555.91 224.38 556.38
  Q 225.04 556.83 225.96 556.96
  Q 226.43 557.02 226.71 556.63
  Q 227.31 555.78 228.52 556.14
  Q 229.03 556.30 228.87 556.81
  Q 228.78 557.08 228.96 557.32
  Q 229.25 557.72 229.74 557.65
  L 231.75 557.37
  Q 232.22 557.31 232.66 557.50
  L 236.13 559.01
  Q 236.22 559.04 236.19 559.08
  Q 236.10 559.23 236.16 559.34
  Q 236.22 559.47 236.37 559.46
  Q 237.50 559.37 238.60 559.37
  Q 239.32 559.37 238.97 560.00
  Q 238.87 560.20 239.07 560.28
  Q 239.88 560.60 239.81 561.50
  Q 239.74 562.37 240.36 562.98
  Q 240.74 563.35 241.25 563.22
  Q 242.54 562.88 243.53 563.79
  Q 244.22 564.43 245.05 565.09
  Q 245.46 565.41 245.97 565.41
  L 249.51 565.36
  Q 250.07 565.36 249.91 565.89
  Q 249.54 567.10 250.52 567.75
  Q 251.76 568.58 252.01 569.00
  L 0.00 569.00
  L 0.00 348.24
  Z"
/>
<path fill="#41d37f" d="
  M 142.27 373.54
  L 142.88 398.17
  Q 140.69 400.93 139.20 405.55
  Q 139.02 406.08 138.47 405.98
  C 130.52 404.48 122.83 405.57 116.32 409.88
  C 112.48 412.43 111.01 415.34 109.50 419.37
  Q 109.29 419.95 108.71 420.16
  L 107.09 420.74
  Q 106.31 420.51 106.28 420.85
  Q 106.48 420.02 106.92 419.35
  Q 107.19 418.94 107.20 418.44
  L 107.69 390.89
  L 107.73 376.72
  Q 112.17 375.26 117.48 375.84
  Q 120.21 376.14 122.01 375.76
  Q 124.26 375.30 126.52 374.89
  Q 127.01 374.80 127.43 375.01
  Q 127.75 375.17 127.63 375.51
  Q 127.36 376.24 128.14 376.16
  Q 129.52 376.00 130.91 375.72
  Q 132.21 375.45 133.66 375.52
  Q 139.44 375.82 142.27 373.54
  Z"
/>
<path fill="#42d2f7" d="
  M 107.69 390.89
  L 107.20 418.44
  Q 107.19 418.94 106.92 419.35
  Q 106.48 420.02 106.28 420.85
  L 71.14 430.34
  Q 67.91 427.09 66.55 423.28
  Q 64.67 411.81 65.07 399.79
  L 65.25 395.24
  Q 65.29 394.46 65.65 395.16
  Q 66.17 396.17 66.21 397.21
  A 1.87 1.87 0.0 0 0 68.80 398.85
  C 70.28 398.23 72.58 399.00 74.15 399.23
  Q 75.80 399.48 77.37 399.24
  Q 84.47 398.15 91.76 397.14
  Q 92.32 397.07 92.76 397.42
  Q 93.35 397.90 93.88 397.37
  Q 94.14 397.12 94.51 397.15
  Q 94.72 397.16 94.90 397.30
  Q 95.39 397.67 95.37 397.05
  Q 95.34 396.36 96.05 396.34
  Q 96.68 396.32 97.26 396.11
  Q 99.03 395.50 100.75 394.81
  Q 101.59 394.48 104.32 393.76
  Q 107.35 392.96 107.69 390.89
  Z"
/>
<path fill="#c22abd" d="
  M 487.78 402.22
  L 487.27 416.25
  Q 483.91 423.48 478.91 429.66
  L 465.77 425.35
  A 0.70 0.69 9.3 0 1 465.29 424.69
  L 465.30 406.72
  L 466.09 402.16
  Q 466.22 401.42 466.71 401.99
  Q 466.91 402.22 466.92 402.54
  Q 466.93 402.90 467.25 403.07
  Q 467.44 403.17 467.60 403.10
  Q 467.76 403.03 467.83 402.87
  Q 468.22 401.93 469.26 401.76
  Q 473.09 401.12 476.59 400.81
  Q 479.80 400.52 483.87 401.66
  A 0.63 0.62 21.4 0 0 484.57 401.36
  L 484.95 400.66
  A 0.63 0.63 0.0 0 1 485.85 400.44
  L 486.12 400.61
  Q 486.46 400.83 486.40 400.43
  Q 486.32 399.96 486.61 399.53
  Q 487.07 398.85 487.14 399.67
  Q 487.16 399.90 487.18 400.12
  Q 487.23 400.52 487.13 400.13
  Q 486.93 399.34 487.23 398.77
  Q 487.47 398.30 487.51 398.82
  L 487.78 402.22
  Z"
/>
<path fill="#305b99" d="
  M 466.94 443.59
  L 483.91 448.90
  A 0.38 0.37 32.7 0 1 484.05 449.53
  Q 474.97 457.88 466.96 467.18
  A 1.24 1.22 28.3 0 1 465.69 467.55
  C 429.50 457.00 394.73 452.09 355.17 448.47
  C 319.82 445.22 284.68 443.69 252.25 444.85
  Q 213.20 446.24 173.21 450.71
  C 142.18 454.18 113.42 458.72 83.96 467.09
  Q 83.47 467.23 83.04 466.97
  Q 81.90 466.28 81.01 465.26
  Q 73.90 457.04 65.82 448.91
  A 0.70 0.70 0.0 0 1 66.15 447.73
  L 110.22 437.12
  C 169.64 424.63 229.33 419.08 290.50 419.91
  Q 369.62 420.99 446.70 438.72
  Q 456.85 441.06 466.94 443.59
  Z"
/>
<path fill="#305b99" d="
  M 414.84 477.70
  C 427.26 480.00 439.06 482.62 450.63 485.89
  A 0.32 0.32 0.0 0 1 450.75 486.44
  L 432.00 501.63
  A 1.99 1.97 31.5 0 1 430.32 502.02
  Q 418.84 499.38 407.28 497.47
  Q 374.57 492.07 337.74 489.42
  Q 236.89 482.14 139.16 498.02
  Q 128.97 499.67 119.31 502.04
  A 2.28 2.26 56.6 0 1 117.41 501.64
  L 97.89 486.84
  A 0.50 0.50 0.0 0 1 98.08 485.96
  Q 166.48 469.83 237.27 465.77
  Q 247.88 465.17 257.28 464.95
  Q 335.96 463.11 414.84 477.70
  Z"
/>
<path fill="#305b99" d="
  M 278.76 569.00
  L 271.80 569.00
  Q 232.15 551.91 191.88 536.54
  C 171.20 528.65 150.75 519.81 130.67 510.98
  A 0.83 0.81 17.7 0 1 130.19 510.08
  Q 130.31 509.43 131.03 509.35
  Q 144.43 507.95 157.36 508.54
  Q 217.74 511.30 275.31 522.01
  Q 278.41 522.58 281.39 522.08
  Q 287.77 521.01 293.91 519.96
  Q 339.60 512.15 385.75 508.69
  Q 401.76 507.49 417.35 509.29
  Q 418.11 509.38 418.83 509.66
  A 0.67 0.67 0.0 0 1 418.86 510.90
  Q 391.93 522.87 365.33 533.40
  Q 321.76 550.66 278.76 569.00
  Z"
/>
</svg>
